<?xml version="1.0" encoding="utf-8"?>
<!-- Generator: Adobe Illustrator 19.2.1, SVG Export Plug-In . SVG Version: 6.00 Build 0)  -->
<svg version="1.1" xmlns="http://www.w3.org/2000/svg" xmlns:xlink="http://www.w3.org/1999/xlink" x="0px" y="0px"
	 viewBox="0 0 1280 720" style="enable-background:new 0 0 1280 720;" xml:space="preserve">
<style type="text/css">
	.st0{fill:#E6CEE0;}
	.st1{fill:#783512;}
	.st2{fill:#5E2A11;}
	.st3{fill:#3C1F11;}
</style>
<g id="Layer_1">
	<rect class="st0" width="1280" height="720"/>
</g>
<g id="Layer_3">
	<path class="st1" d="M1232,416c-4.9,0-80-16-80-16s-40.6,0-49.1,2.4c-8.5,2.4-24.4,9.8-24.4,9.8s-73.2,67.1-76.8,67.1
		c-3.7,0-34.1,45.1-34.1,45.1s-76.8-106.1-81.7-113.4c-4.9-7.3-40.2-50-40.2-50.9s-56.1,0-56.1,0s-32.2,39.6-34.1,35.7
		c-1.9-3.9-69.6-4.3-74.5-3c-4.9,1.2-23.2,31.7-23.2,31.7L615,475.6l-42.7-51.2l-45.1-47.6c0,0-30.5-37.8-36.6-40.2
		c-6.1-2.4-46.3,0-46.3,0l-20.7,64.6c0,0-50,9.8-53.7,9.8c-3.7,0-13.4,29.3-13.4,29.3l-23.2,35.4l-62.2-15.9l-8.5-50
		c0,0-57.3-37.8-61-36.6c-3.7,1.2-79.3,8.5-79.3,8.5l-31.7,28l-14.6,28H50.4L0,464v112v45.9V720h1280v-98.1V576v-21.2V464
		C1280,464,1236.9,416,1232,416z"/>
</g>
<g id="Layer_4">
	<path class="st2" d="M1073.6,521c-6.1-3.7-20.7-18.3-30.5-29.3c-9.8-11-68.3-7.9-68.3-7.9l-62.2,20.1L859,521
		c0,0-65.9-4.9-70.7-8.5c-4.9-3.7-47.6-35.4-51.2-39c-3.7-3.7-46.3-47.6-56.1-51.2c-9.8-3.7-75.6-18.3-75.6-18.3l-32.9,9.8
		L515,453.9l-31.7,29.9l-63.4,16.4l-58.5-3.7c0,0-23.2-39-26.8-39S276,430.7,276,430.7l-61,26.8l-54.9,37.8h-54.9l-23.2,36.6L0,544
		v32v32v112h1280v-53.9V576v-32C1280,544,1079.7,524.6,1073.6,521z"/>
</g>
<g id="Layer_5">
	<path class="st3" d="M1280,576v144H0V574.3h95.5l52.4-52.4c0,0,67.1-12.2,79.3,0c12.2,12.2,34.2,70.7,52.4,52.4
		c18.3-18.3,140.3,63.4,140.3,0c0-63.4,61-78,69.5-69.5c8.5,8.5,68.3,0,68.3,0s19.2,60.7,39.9,39.9c20.7-20.7,77.6-8.1,85.7,0
		c8.1,8.1,109.3,20,129.3,0c20-20,78,0,97.6,0s76.4,13.9,90.2,0c13.9-13.9,82.2-82.2,82.2-82.2l69.4,1.4l80.1,55.5
		C1232.1,519.5,1254.4,550.4,1280,576z"/>
</g>
</svg>
