<?xml version="1.0" encoding="utf-8"?>
<!-- Generator: Adobe Illustrator 19.2.1, SVG Export Plug-In . SVG Version: 6.00 Build 0)  -->
<svg version="1.1" xmlns="http://www.w3.org/2000/svg" xmlns:xlink="http://www.w3.org/1999/xlink" x="0px" y="0px"
	 viewBox="0 0 1280 1280" style="enable-background:new 0 0 1280 1280;" xml:space="preserve">
<style type="text/css">
	.st0{display:none;}
	.st1{display:inline;fill:#3C97D3;}
	.st2{fill:#B37643;}
	.st3{fill:#A8693F;}
	.st4{fill:#30B564;}
	.st5{fill:#31964D;}
	.st6{fill:#57BB6D;}
	.st7{fill:#8BD7F8;}
	.st8{fill:#74CAD8;}
	.st9{fill:#EAF7FB;}
</style>
<g id="bg" class="st0">
	<rect x="0" y="0" class="st1" width="1280" height="1280"/>
</g>
<g id="ground1">
	<rect x="256" y="128" class="st2" width="128" height="128"/>
	<rect x="392" y="264" class="st2" width="128" height="128"/>
	<path class="st2" d="M248,128v128H120V140c0-6.6,5.4-12,12-12H248z"/>
	<path class="st2" d="M520,140v116H392V128h116C514.6,128,520,133.4,520,140z"/>
	<path class="st2" d="M384,276v104c0,3.3-1.3,6.3-3.5,8.5c-2.2,2.2-5.2,3.5-8.5,3.5H268c-3.3,0-6.3-1.4-8.5-3.5
		c-2.2-2.2-3.5-5.2-3.5-8.5V276c0-6.6,5.4-12,12-12h104C378.6,264,384,269.4,384,276z"/>
	<path class="st2" d="M248,276v104c0,3.3-1.3,6.3-3.5,8.5c-2.2,2.2-5.2,3.5-8.5,3.5H132c-3.3,0-6.3-1.4-8.5-3.5
		c-2.2-2.2-3.5-5.2-3.5-8.5V276c0-6.6,5.4-12,12-12h104C242.6,264,248,269.4,248,276z"/>
	<path class="st2" d="M656,128v128c-9.9,0-19.5-1.1-28.8-3.3c-3-0.7-6-1.5-8.9-2.4c-5.2-1.6-10.2-3.5-15-5.7
		c-12.4-5.6-23.8-13.2-33.7-22.3c-1.4-1.3-2.8-2.6-4.1-3.9c-3.2-3.2-6.3-6.6-9.1-10.1c-7.4-9.2-13.6-19.5-18.3-30.5
		c-2-4.8-3.8-9.7-5.2-14.8c-0.6-2.1-1.1-4.2-1.6-6.4c-1-4.5-1.8-9-2.4-13.6L528,144v-4c0-1,0.1-1.9,0.3-2.8c1.3-5.3,6-9.2,11.7-9.2
		H656z"/>
	<path class="st2" d="M792,140v4l-0.9-0.9c-0.5,4.6-1.3,9.2-2.4,13.6c-0.5,2.1-1,4.3-1.6,6.4c-1.4,5.1-3.2,10-5.2,14.8
		c-4.7,11-10.9,21.3-18.3,30.5c-2.8,3.5-5.9,6.9-9.1,10.1c-1.3,1.3-2.7,2.6-4.1,3.9c-9.9,9.1-21.3,16.7-33.7,22.3
		c-4.9,2.2-9.9,4.1-15,5.7c-2.9,0.9-5.9,1.7-8.9,2.4c-9.2,2.1-18.9,3.3-28.8,3.3V128h116c5.7,0,10.4,4,11.7,9.2
		C791.9,138.1,792,139,792,140z"/>
	<path class="st2" d="M656,264v128h-36c-0.5-1.9-1-3.8-1.6-5.6c-3.3-10.9-8.1-21.2-14.1-30.7c-2.6-4-5.3-8-8.3-11.7
		c-3-3.7-6.1-7.2-9.5-10.5c-6-6-12.7-11.5-19.8-16.2c-10.8-7.2-22.8-12.8-35.6-16.4c-1-0.3-2.1-0.6-3.1-0.9v-24c0-6.6,5.4-12,12-12
		H656z"/>
	<path class="st2" d="M792,276v24c-1,0.3-2.1,0.5-3.1,0.9c-12.8,3.6-24.8,9.2-35.6,16.4c-7.1,4.7-13.8,10.2-19.8,16.2
		c-3.3,3.3-6.5,6.9-9.5,10.5c-3,3.7-5.8,7.6-8.3,11.7c-6,9.5-10.8,19.7-14.1,30.7c-0.6,1.9-1.1,3.7-1.6,5.6h-36V264h116
		C786.6,264,792,269.4,792,276z"/>
	<rect x="256" y="400" class="st2" width="128" height="64"/>
	<path class="st2" d="M248,400v64H132c-4.3,0-8.1-2.3-10.2-5.8c-1.1-1.8-1.8-4-1.8-6.2v-40c0-6.6,5.4-12,12-12H248z"/>
	<path class="st2" d="M520,412v40c0,2.3-0.7,4.4-1.8,6.2c-2.1,3.5-5.9,5.8-10.2,5.8H392v-64h116C514.6,400,520,405.4,520,412z"/>
	<path class="st2" d="M656,412v40c0,2.3-0.7,4.4-1.8,6.2c-2.1,3.5-5.9,5.8-10.2,5.8H540c-4.3,0-8.1-2.3-10.2-5.8
		c-1.1-1.8-1.8-4-1.8-6.2v-40c0-6.6,5.4-12,12-12h104C650.6,400,656,405.4,656,412z"/>
</g>
<g id="ground2">
	<polygon class="st3" points="368,172 352,188 336,172 320,188 304,172 288,188 272,172 256,188 256,196 256,204 256,212 272,196 
		288,212 304,196 320,212 336,196 352,212 368,196 384,212 384,204 384,196 384,188 	"/>
	<polygon class="st3" points="368,216 352,232 336,216 320,232 304,216 288,232 272,216 256,232 256,240 256,248 256,256 272,240 
		288,256 304,240 320,256 336,240 352,256 368,240 384,256 384,248 384,240 384,232 	"/>
	<polygon class="st3" points="504,264 488,280 472,264 456,280 440,264 424,280 408,264 392,280 392,288 392,296 392,304 408,288 
		424,304 440,288 456,304 472,288 488,304 504,288 520,304 520,296 520,288 520,280 	"/>
	<polygon class="st3" points="504,308 488,324 472,308 456,324 440,308 424,324 408,308 392,324 392,332 392,340 392,348 408,332 
		424,348 440,332 456,348 472,332 488,348 504,332 520,348 520,340 520,332 520,324 	"/>
	<polygon class="st3" points="504,352 488,368 472,352 456,368 440,352 424,368 408,352 392,368 392,376 392,384 392,392 408,376 
		424,392 440,376 456,392 472,376 488,392 504,376 520,392 520,384 520,376 520,368 	"/>
	<polygon class="st3" points="368,128 352,144 336,128 320,144 304,128 288,144 272,128 256,144 256,152 256,160 256,168 272,152 
		288,168 304,152 320,168 336,152 352,168 368,152 384,168 384,160 384,152 384,144 	"/>
	<polygon class="st3" points="232,172 216,188 200,172 184,188 168,172 152,188 136,172 120,188 120,196 120,204 120,212 136,196 
		152,212 168,196 184,212 200,196 216,212 232,196 248,212 248,204 248,196 248,188 	"/>
	<polygon class="st3" points="232,216 216,232 200,216 184,232 168,216 152,232 136,216 120,232 120,240 120,248 120,256 136,240 
		152,256 168,240 184,256 200,240 216,256 232,240 248,256 248,248 248,240 248,232 	"/>
	<polygon class="st3" points="232,128 216,144 200,128 184,144 168,128 152,144 136,128 120,144 120,152 120,160 120,168 136,152 
		152,168 168,152 184,168 200,152 216,168 232,152 248,168 248,160 248,152 248,144 	"/>
	<polygon class="st3" points="504,172 488,188 472,172 456,188 440,172 424,188 408,172 392,188 392,196 392,204 392,212 408,196 
		424,212 440,196 456,212 472,196 488,212 504,196 520,212 520,204 520,196 520,188 	"/>
	<polygon class="st3" points="504,216 488,232 472,216 456,232 440,216 424,232 408,216 392,232 392,240 392,248 392,256 408,240 
		424,256 440,240 456,256 472,240 488,256 504,240 520,256 520,248 520,240 520,232 	"/>
	<polygon class="st3" points="504,128 488,144 472,128 456,144 440,128 424,144 408,128 392,144 392,152 392,160 392,168 408,152 
		424,168 440,152 456,168 472,152 488,168 504,152 520,168 520,160 520,152 520,144 	"/>
	<polygon class="st3" points="368,264 352,280 336,264 320,280 304,264 288,280 272,264 256,280 256,288 256,296 256,304 272,288 
		288,304 304,288 320,304 336,288 352,304 368,288 384,304 384,296 384,288 384,280 	"/>
	<polygon class="st3" points="368,308 352,324 336,308 320,324 304,308 288,324 272,308 256,324 256,332 256,340 256,348 272,332 
		288,348 304,332 320,348 336,332 352,348 368,332 384,348 384,340 384,332 384,324 	"/>
	<path class="st3" d="M384,368v12c0,3.3-1.3,6.3-3.5,8.5L368,376l-16,16l-16-16l-16,16l-16-16l-16,16l-16-16l-12.5,12.5
		c-2.2-2.2-3.5-5.2-3.5-8.5v-12l16-16l16,16l16-16l16,16l16-16l16,16l16-16L384,368z"/>
	<polygon class="st3" points="232,308 216,324 200,308 184,324 168,308 152,324 136,308 120,324 120,332 120,340 120,348 136,332 
		152,348 168,332 184,348 200,332 216,348 232,332 248,348 248,340 248,332 248,324 	"/>
	<path class="st3" d="M248,368v12c0,3.3-1.3,6.3-3.5,8.5L232,376l-16,16l-16-16l-16,16l-16-16l-16,16l-16-16l-12.5,12.5
		c-2.2-2.2-3.5-5.2-3.5-8.5v-12l16-16l16,16l16-16l16,16l16-16l16,16l16-16L248,368z"/>
	<polygon class="st3" points="232,264 216,280 200,264 184,280 168,264 152,280 136,264 120,280 120,288 120,296 120,304 136,288 
		152,304 168,288 184,304 200,288 216,304 232,288 248,304 248,296 248,288 248,280 	"/>
	<path class="st3" d="M656,188v24l-16-16l-16,16l-16-16l-16,16l-16-16l-16,16l-3.6-3.6c-7.4-9.2-13.6-19.5-18.3-30.5l5.9-5.9l16,16
		l16-16l16,16l16-16l16,16l16-16L656,188z"/>
	<path class="st3" d="M656,232v24l-16-16l-12.8,12.8c-3-0.7-6-1.5-8.9-2.4L608,240l-4.7,4.7c-12.4-5.6-23.8-13.2-33.7-22.3l6.4-6.4
		l16,16l16-16l16,16l16-16L656,232z"/>
	<path class="st3" d="M656,144v24l-16-16l-16,16l-16-16l-16,16l-16-16l-16,16l-16-16l-11.1,11.1c-0.6-2.1-1.1-4.2-1.6-6.4
		c-1-4.5-1.8-9-2.4-13.6L544,128l16,16l16-16l16,16l16-16l16,16l16-16L656,144z"/>
	<path class="st3" d="M781.9,177.9c-4.7,11-10.9,21.3-18.3,30.5L760,212l-16-16l-16,16l-16-16l-16,16l-16-16l-16,16v-24l16-16l16,16
		l16-16l16,16l16-16l16,16l16-16L781.9,177.9z"/>
	<path class="st3" d="M750.4,222.4c-9.9,9.1-21.3,16.7-33.7,22.3L712,240l-10.4,10.4c-2.9,0.9-5.9,1.7-8.9,2.4L680,240l-16,16v-24
		l16-16l16,16l16-16l16,16l16-16L750.4,222.4z"/>
	<path class="st3" d="M791.1,143.1c-0.5,4.6-1.3,9.2-2.4,13.6c-0.5,2.1-1,4.3-1.6,6.4L776,152l-16,16l-16-16l-16,16l-16-16l-16,16
		l-16-16l-16,16v-24l16-16l16,16l16-16l16,16l16-16l16,16l16-16L791.1,143.1z"/>
	<path class="st3" d="M656,324v24l-16-16l-16,16l-16-16l-12,12c-3-3.7-6.1-7.2-9.5-10.5c-6-6-12.7-11.5-19.8-16.2l9.3-9.3l16,16
		l16-16l16,16l16-16L656,324z"/>
	<path class="st3" d="M656,368v24l-16-16l-16,16l-5.6-5.6c-3.3-10.9-8.1-21.2-14.1-30.7l3.7-3.7l16,16l16-16L656,368z"/>
	<path class="st3" d="M656,280v24l-16-16l-16,16l-16-16l-16,16l-16-16l-16,16l-16-16l-12.9,12.9c-1-0.3-2.1-0.6-3.1-0.9v-20l16-16
		l16,16l16-16l16,16l16-16l16,16l16-16L656,280z"/>
	<path class="st3" d="M753.3,317.3c-7.1,4.7-13.8,10.2-19.8,16.2c-3.3,3.3-6.5,6.9-9.5,10.5l-12-12l-16,16l-16-16l-16,16v-24l16-16
		l16,16l16-16l16,16l16-16L753.3,317.3z"/>
	<path class="st3" d="M715.7,355.7c-6,9.5-10.8,19.7-14.1,30.7L696,392l-16-16l-16,16v-24l16-16l16,16l16-16L715.7,355.7z"/>
	<path class="st3" d="M792,280v20c-1,0.3-2.1,0.5-3.1,0.9L776,288l-16,16l-16-16l-16,16l-16-16l-16,16l-16-16l-16,16v-24l16-16
		l16,16l16-16l16,16l16-16l16,16l16-16L792,280z"/>
	<polygon class="st3" points="384,460 384,464 256,464 256,460 272,444 288,460 304,444 320,460 336,444 352,460 368,444 	"/>
	<polygon class="st3" points="368,400 352,416 336,400 320,416 304,400 288,416 272,400 256,416 256,424 256,432 256,440 272,424 
		288,440 304,424 320,440 336,424 352,440 368,424 384,440 384,432 384,424 384,416 	"/>
	<path class="st3" d="M248,460v4H132c-4.3,0-8.1-2.3-10.2-5.8L136,444l16,16l16-16l16,16l16-16l16,16l16-16L248,460z"/>
	<polygon class="st3" points="232,400 216,416 200,400 184,416 168,400 152,416 136,400 120,416 120,424 120,432 120,440 136,424 
		152,440 168,424 184,440 200,424 216,440 232,424 248,440 248,432 248,424 248,416 	"/>
	<path class="st3" d="M518.2,458.2c-2.1,3.5-5.9,5.8-10.2,5.8H392v-4l16-16l16,16l16-16l16,16l16-16l16,16l16-16L518.2,458.2z"/>
	<polygon class="st3" points="504,400 488,416 472,400 456,416 440,400 424,416 408,400 392,416 392,424 392,432 392,440 408,424 
		424,440 440,424 456,440 472,424 488,440 504,424 520,440 520,432 520,424 520,416 	"/>
	<path class="st3" d="M654.2,458.2c-2.1,3.5-5.9,5.8-10.2,5.8H540c-4.3,0-8.1-2.3-10.2-5.8L544,444l16,16l16-16l16,16l16-16l16,16
		l16-16L654.2,458.2z"/>
	<polygon class="st3" points="640,400 624,416 608,400 592,416 576,400 560,416 544,400 528,416 528,424 528,432 528,440 544,424 
		560,440 576,424 592,440 608,424 624,440 640,424 656,440 656,432 656,424 656,416 	"/>
</g>
<g id="ground3">
	<polygon class="st4" points="368,128 256,128 256,160 272,144 288,160 304,144 320,160 336,144 352,160 368,144 384,160 384,128 	
		"/>
	<path class="st4" d="M248,128v32l-16-16l-16,16l-16-16l-16,16l-16-16l-16,16l-16-16l-16,16v-20c0-6.6,5.4-12,12-12H248z"/>
	<path class="st4" d="M520,140v20l-16-16l-16,16l-16-16l-16,16l-16-16l-16,16l-16-16l-16,16v-32h116C514.6,128,520,133.4,520,140z"
		/>
	<path class="st4" d="M248,276v20l-16-16l-16,16l-16-16l-16,16l-16-16l-16,16l-16-16l-16,16v-20c0-6.6,5.4-12,12-12h104
		C242.6,264,248,269.4,248,276z"/>
	<path class="st4" d="M656,128v32l-16-16l-16,16l-16-16l-16,16l-16-16l-16,16l-16-16l-12.8,12.8c-1-4.5-1.8-9-2.4-13.6L528,144v-4
		c0-1,0.1-1.9,0.3-2.8c1.3-5.3,6-9.2,11.7-9.2H656z"/>
	<path class="st4" d="M792,140v4l-0.9-0.9c-0.5,4.6-1.3,9.2-2.4,13.6L776,144l-16,16l-16-16l-16,16l-16-16l-16,16l-16-16l-16,16v-32
		h116c5.7,0,10.4,4,11.7,9.2C791.9,138.1,792,139,792,140z"/>
	<path class="st4" d="M656,264v32l-16-16l-16,16l-16-16l-16,16l-16-16l-16,16l-16-16l-16,16v-20c0-6.6,5.4-12,12-12H656z"/>
	<path class="st4" d="M792,276v20l-16-16l-16,16l-16-16l-16,16l-16-16l-16,16l-16-16l-16,16v-32h116C786.6,264,792,269.4,792,276z"
		/>
	<polygon class="st4" points="368,400 256,400 256,432 272,416 288,432 304,416 320,432 336,416 352,432 368,416 384,432 384,400 	
		"/>
	<path class="st4" d="M248,400v32l-16-16l-16,16l-16-16l-16,16l-16-16l-16,16l-16-16l-16,16v-20c0-6.6,5.4-12,12-12H248z"/>
	<path class="st4" d="M520,412v20l-16-16l-16,16l-16-16l-16,16l-16-16l-16,16l-16-16l-16,16v-32h116C514.6,400,520,405.4,520,412z"
		/>
	<path class="st4" d="M656,412v20l-16-16l-16,16l-16-16l-16,16l-16-16l-16,16l-16-16l-16,16v-20c0-6.6,5.4-12,12-12h104
		C650.6,400,656,405.4,656,412z"/>
</g>
<g id="ground4">
	<polygon class="st5" points="256,160 272,144 288,160 304,144 320,160 336,144 352,160 368,144 384,160 384,168 368,152 352,168 
		336,152 320,168 304,152 288,168 272,152 256,168 	"/>
	<polygon class="st5" points="120,160 136,144 152,160 168,144 184,160 200,144 216,160 232,144 248,160 248,168 232,152 216,168 
		200,152 184,168 168,152 152,168 136,152 120,168 	"/>
	<polygon class="st5" points="392,160 408,144 424,160 440,144 456,160 472,144 488,160 504,144 520,160 520,168 504,152 488,168 
		472,152 456,168 440,152 424,168 408,152 392,168 	"/>
	<polygon class="st5" points="120,296 136,280 152,296 168,280 184,296 200,280 216,296 232,280 248,296 248,304 232,288 216,304 
		200,288 184,304 168,288 152,304 136,288 120,304 	"/>
	<path class="st5" d="M656,160v8l-16-16l-16,16l-16-16l-16,16l-16-16l-16,16l-16-16l-11.1,11.1c-0.6-2.1-1.1-4.2-1.6-6.4L544,144
		l16,16l16-16l16,16l16-16l16,16l16-16L656,160z"/>
	<path class="st5" d="M788.8,156.8c-0.5,2.1-1,4.3-1.6,6.4L776,152l-16,16l-16-16l-16,16l-16-16l-16,16l-16-16l-16,16v-8l16-16
		l16,16l16-16l16,16l16-16l16,16l16-16L788.8,156.8z"/>
	<path class="st5" d="M656,296v8l-16-16l-16,16l-16-16l-16,16l-16-16l-16,16l-16-16l-12.9,12.9c-1-0.3-2.1-0.6-3.1-0.9v-4l16-16
		l16,16l16-16l16,16l16-16l16,16l16-16L656,296z"/>
	<path class="st5" d="M792,296v4c-1,0.3-2.1,0.5-3.1,0.9L776,288l-16,16l-16-16l-16,16l-16-16l-16,16l-16-16l-16,16v-8l16-16l16,16
		l16-16l16,16l16-16l16,16l16-16L792,296z"/>
	<polygon class="st5" points="256,432 272,416 288,432 304,416 320,432 336,416 352,432 368,416 384,432 384,440 368,424 352,440 
		336,424 320,440 304,424 288,440 272,424 256,440 	"/>
	<polygon class="st5" points="120,432 136,416 152,432 168,416 184,432 200,416 216,432 232,416 248,432 248,440 232,424 216,440 
		200,424 184,440 168,424 152,440 136,424 120,440 	"/>
	<polygon class="st5" points="392,432 408,416 424,432 440,416 456,432 472,416 488,432 504,416 520,432 520,440 504,424 488,440 
		472,424 456,440 440,424 424,440 408,424 392,440 	"/>
	<polygon class="st5" points="528,432 544,416 560,432 576,416 592,432 608,416 624,432 640,416 656,432 656,440 640,424 624,440 
		608,424 592,440 576,424 560,440 544,424 528,440 	"/>
</g>
<g id="tree1">
	<polygon class="st3" points="824,640 832,584 840,640 	"/>
</g>
<g id="tree2">
	<polygon class="st5" points="800,608 864,608 832,552 	"/>
	<polygon class="st5" points="855,584 807,584 832,536 	"/>
	<polygon class="st5" points="816,560 832,512 848,560 	"/>
	<polygon class="st6" points="819.5,560 843.5,560 844.2,561.4 818.8,561.4 	"/>
	<polygon class="st6" points="813.7,584 850.3,584 851.1,585.4 812.9,585.4 	"/>
</g>
<g id="grass">
	<polygon class="st5" points="699,640 690.8,630.5 699,635.3 697.3,624.5 704.7,634.7 712,626.8 708.2,640 	"/>
</g>
<g id="water1">
	<rect x="256" y="512" class="st7" width="128" height="128"/>
	<path class="st8" d="M384,518v22.1c0,0-32.4,31.6-64,0c-31.6-31.6-64,0-64,0V518c0,0,3-2.9,8-6h49c2.4,1.7,4.7,3.7,7.1,6
		C351.6,549.7,384,518,384,518z"/>
	<path class="st8" d="M384,542.1v22.1c0,0-32.4,31.6-64,0c-31.6-31.6-64,0-64,0v-22.1c0,0,32.4-31.6,64,0S384,542.1,384,542.1z"/>
	<path class="st8" d="M384,611.9V634c0,0-3,2.9-8,6h-49c-2.4-1.7-4.7-3.7-7.1-6c-0.7-0.7-1.4-1.3-2-2c-31-28.3-62,2-62,2v-22.1
		c0,0,32.4-31.6,64,0C351.6,643.5,384,611.9,384,611.9z"/>
	<path class="st8" d="M384,587.9v22.1c0,0-32.4,31.6-64,0c-31.6-31.6-64,0-64,0v-22.1c0,0,32.4-31.6,64,0S384,587.9,384,587.9z"/>
	<path class="st8" d="M376,512c-10.3,6.5-29.3,14.2-49,0H376z"/>
	<path class="st8" d="M312.9,640h-49C274.3,633.5,293.3,625.8,312.9,640z"/>
	<path class="st7" d="M248,564.1V640H120v-75.9c0,0,32.4-31.6,64,0C215.6,595.7,248,564.1,248,564.1z"/>
	<path class="st8" d="M248,611.9V634c0,0-3,2.9-8,6h-49c-2.4-1.7-4.7-3.7-7.1-6c-0.7-0.7-1.4-1.3-2-2c-31-28.3-62,2-62,2v-22.1
		c0,0,32.4-31.6,64,0C215.6,643.5,248,611.9,248,611.9z"/>
	<path class="st8" d="M248,587.9v22.1c0,0-32.4,31.6-64,0c-31.6-31.6-64,0-64,0v-22.1c0,0,32.4-31.6,64,0S248,587.9,248,587.9z"/>
	<path class="st8" d="M176.9,640h-49C138.3,633.5,157.3,625.8,176.9,640z"/>
	<path class="st9" d="M248,558.1v6.1c0,0-32.4,31.6-64,0c-31.6-31.6-64,0-64,0v-6.1c0,0,32.4-31.6,64,0S248,558.1,248,558.1z"/>
</g>
</svg>
