<?xml version="1.0" encoding="utf-8"?>
<!-- Generator: Adobe Illustrator 19.2.1, SVG Export Plug-In . SVG Version: 6.00 Build 0)  -->
<svg version="1.1" xmlns="http://www.w3.org/2000/svg" xmlns:xlink="http://www.w3.org/1999/xlink" x="0px" y="0px"
	 viewBox="0 0 1280 1280" style="enable-background:new 0 0 1280 1280;" xml:space="preserve">
<style type="text/css">
	.st0{fill:#3E94D1;}
	.st1{fill:#B2875D;}
	.st2{fill:#A87B4E;}
	.st3{fill:#2DB263;}
	.st4{fill:#E1F3F5;}
	.st5{fill:#7D5B9B;}
	.st6{fill:#C87A29;}
	.st7{fill:#2E934A;}
	.st8{fill:#BEDCE0;}
	.st9{fill:#6D4E8D;}
	.st10{fill:#B46F29;}
</style>
<g id="bg">
	<rect x="0" y="0" class="st0" width="1280" height="1280"/>
</g>
<g id="ground1">
	<rect x="304" y="88" class="st1" width="128" height="128"/>
	<rect x="440" y="224" class="st1" width="128" height="128"/>
	<path class="st1" d="M296,88v128H168V100c0-6.6,5.4-12,12-12H296z"/>
	<path class="st1" d="M568,100v116H440V88h116C562.6,88,568,93.4,568,100z"/>
	<path class="st1" d="M432,236v104c0,3.3-1.3,6.3-3.5,8.5c-2.2,2.2-5.2,3.5-8.5,3.5H316c-3.3,0-6.3-1.4-8.5-3.5
		c-2.2-2.2-3.5-5.2-3.5-8.5V236c0-6.6,5.4-12,12-12h104C426.6,224,432,229.4,432,236z"/>
	<path class="st1" d="M296,236v104c0,3.3-1.3,6.3-3.5,8.5c-2.2,2.2-5.2,3.5-8.5,3.5H180c-3.3,0-6.3-1.4-8.5-3.5
		c-2.2-2.2-3.5-5.2-3.5-8.5V236c0-6.6,5.4-12,12-12h104C290.6,224,296,229.4,296,236z"/>
	<path class="st1" d="M704,88v128c-9.9,0-19.5-1.1-28.8-3.3c-3-0.7-6-1.5-8.9-2.4c-5.2-1.6-10.2-3.5-15-5.7
		c-12.4-5.6-23.8-13.2-33.7-22.3c-1.4-1.3-2.8-2.6-4.1-3.9c-3.2-3.2-6.3-6.6-9.1-10.1c-7.4-9.2-13.6-19.5-18.3-30.5
		c-2-4.8-3.8-9.7-5.2-14.8c-0.6-2.1-1.1-4.2-1.6-6.4c-1-4.5-1.8-9-2.4-13.6L576,104v-4c0-1,0.1-1.9,0.3-2.8c1.3-5.3,6-9.2,11.7-9.2
		H704z"/>
	<path class="st1" d="M840,100v4l-0.9-0.9c-0.5,4.6-1.3,9.2-2.4,13.6c-0.5,2.1-1,4.3-1.6,6.4c-1.4,5.1-3.2,10-5.2,14.8
		c-4.7,11-10.9,21.3-18.3,30.5c-2.8,3.5-5.9,6.9-9.1,10.1c-1.3,1.3-2.7,2.6-4.1,3.9c-9.9,9.1-21.3,16.7-33.7,22.3
		c-4.9,2.2-9.9,4.1-15,5.7c-2.9,0.9-5.9,1.7-8.9,2.4c-9.2,2.1-18.9,3.3-28.8,3.3V88h116c5.7,0,10.4,4,11.7,9.2
		C839.9,98.1,840,99,840,100z"/>
	<path class="st1" d="M704,224v128h-36c-0.5-1.9-1-3.8-1.6-5.6c-3.3-10.9-8.1-21.2-14.1-30.7c-2.6-4-5.3-8-8.3-11.7
		c-3-3.7-6.1-7.2-9.5-10.5c-6-6-12.7-11.5-19.8-16.2c-10.8-7.2-22.8-12.8-35.6-16.4c-1-0.3-2.1-0.6-3.1-0.9v-24c0-6.6,5.4-12,12-12
		H704z"/>
	<path class="st1" d="M840,236v24c-1,0.3-2.1,0.5-3.1,0.9c-12.8,3.6-24.8,9.2-35.6,16.4c-7.1,4.7-13.8,10.2-19.8,16.2
		c-3.3,3.3-6.5,6.9-9.5,10.5c-3,3.7-5.8,7.6-8.3,11.7c-6,9.5-10.8,19.7-14.1,30.7c-0.6,1.9-1.1,3.7-1.6,5.6h-36V224h116
		C834.6,224,840,229.4,840,236z"/>
	<rect x="984" y="88" class="st1" width="128" height="64"/>
	<path class="st1" d="M976,88v64H860c-4.3,0-8.1-2.3-10.2-5.8c-1.1-1.8-1.8-4-1.8-6.2v-40c0-6.6,5.4-12,12-12H976z"/>
	<path class="st1" d="M976,236v40c0,2.3-0.7,4.4-1.8,6.2c-2.1,3.5-5.9,5.8-10.2,5.8H848v-64h116C970.6,224,976,229.4,976,236z"/>
	<path class="st1" d="M1112,236v40c0,2.3-0.7,4.4-1.8,6.2c-2.1,3.5-5.9,5.8-10.2,5.8H996c-4.3,0-8.1-2.3-10.2-5.8
		c-1.1-1.8-1.8-4-1.8-6.2v-40c0-6.6,5.4-12,12-12h104C1106.6,224,1112,229.4,1112,236z"/>
	<rect x="304" y="368" class="st1" width="128" height="128"/>
	<rect x="440" y="504" class="st1" width="128" height="128"/>
	<path class="st1" d="M296,368v128H168V380c0-6.6,5.4-12,12-12H296z"/>
	<path class="st1" d="M568,380v116H440V368h116C562.6,368,568,373.4,568,380z"/>
	<path class="st1" d="M432,516v104c0,3.3-1.3,6.3-3.5,8.5c-2.2,2.2-5.2,3.5-8.5,3.5H316c-3.3,0-6.3-1.4-8.5-3.5
		c-2.2-2.2-3.5-5.2-3.5-8.5V516c0-6.6,5.4-12,12-12h104C426.6,504,432,509.4,432,516z"/>
	<path class="st1" d="M296,516v104c0,3.3-1.3,6.3-3.5,8.5c-2.2,2.2-5.2,3.5-8.5,3.5H180c-3.3,0-6.3-1.4-8.5-3.5
		c-2.2-2.2-3.5-5.2-3.5-8.5V516c0-6.6,5.4-12,12-12h104C290.6,504,296,509.4,296,516z"/>
	<path class="st1" d="M704,368v128c-9.9,0-19.5-1.1-28.8-3.3c-3-0.7-6-1.5-8.9-2.4c-5.2-1.6-10.2-3.5-15-5.7
		c-12.4-5.6-23.8-13.2-33.7-22.3c-1.4-1.3-2.8-2.6-4.1-3.9c-3.2-3.2-6.3-6.6-9.1-10.1c-7.4-9.2-13.6-19.5-18.3-30.5
		c-2-4.8-3.8-9.7-5.2-14.8c-0.6-2.1-1.1-4.2-1.6-6.4c-1-4.5-1.8-9-2.4-13.6L576,384v-4c0-1,0.1-1.9,0.3-2.8c1.3-5.3,6-9.2,11.7-9.2
		H704z"/>
	<path class="st1" d="M840,380v4l-0.9-0.9c-0.5,4.6-1.3,9.2-2.4,13.6c-0.5,2.1-1,4.3-1.6,6.4c-1.4,5.1-3.2,10-5.2,14.8
		c-4.7,11-10.9,21.3-18.3,30.5c-2.8,3.5-5.9,6.9-9.1,10.1c-1.3,1.3-2.7,2.6-4.1,3.9c-9.9,9.1-21.3,16.7-33.7,22.3
		c-4.9,2.2-9.9,4.1-15,5.7c-2.9,0.9-5.9,1.7-8.9,2.4c-9.2,2.1-18.9,3.3-28.8,3.3V368h116c5.7,0,10.4,4,11.7,9.2
		C839.9,378.1,840,379,840,380z"/>
	<path class="st1" d="M704,504v128h-36c-0.5-1.9-1-3.8-1.6-5.6c-3.3-10.9-8.1-21.2-14.1-30.7c-2.6-4-5.3-8-8.3-11.7
		c-3-3.7-6.1-7.2-9.5-10.5c-6-6-12.7-11.5-19.8-16.2c-10.8-7.2-22.8-12.8-35.6-16.4c-1-0.3-2.1-0.6-3.1-0.9v-24c0-6.6,5.4-12,12-12
		H704z"/>
	<path class="st1" d="M840,516v24c-1,0.3-2.1,0.5-3.1,0.9c-12.8,3.6-24.8,9.2-35.6,16.4c-7.1,4.7-13.8,10.2-19.8,16.2
		c-3.3,3.3-6.5,6.9-9.5,10.5c-3,3.7-5.8,7.6-8.3,11.7c-6,9.5-10.8,19.7-14.1,30.7c-0.6,1.9-1.1,3.7-1.6,5.6h-36V504h116
		C834.6,504,840,509.4,840,516z"/>
	<rect x="984" y="368" class="st1" width="128" height="64"/>
	<path class="st1" d="M976,368v64H860c-4.3,0-8.1-2.3-10.2-5.8c-1.1-1.8-1.8-4-1.8-6.2v-40c0-6.6,5.4-12,12-12H976z"/>
	<path class="st1" d="M976,516v40c0,2.3-0.7,4.4-1.8,6.2c-2.1,3.5-5.9,5.8-10.2,5.8H848v-64h116C970.6,504,976,509.4,976,516z"/>
	<path class="st1" d="M1112,516v40c0,2.3-0.7,4.4-1.8,6.2c-2.1,3.5-5.9,5.8-10.2,5.8H996c-4.3,0-8.1-2.3-10.2-5.8
		c-1.1-1.8-1.8-4-1.8-6.2v-40c0-6.6,5.4-12,12-12h104C1106.6,504,1112,509.4,1112,516z"/>
	<rect x="304" y="648" class="st1" width="128" height="128"/>
	<rect x="440" y="784" class="st1" width="128" height="128"/>
	<path class="st1" d="M296,648v128H168V660c0-6.6,5.4-12,12-12H296z"/>
	<path class="st1" d="M568,660v116H440V648h116C562.6,648,568,653.4,568,660z"/>
	<path class="st1" d="M432,796v104c0,3.3-1.3,6.3-3.5,8.5c-2.2,2.2-5.2,3.5-8.5,3.5H316c-3.3,0-6.3-1.4-8.5-3.5
		c-2.2-2.2-3.5-5.2-3.5-8.5V796c0-6.6,5.4-12,12-12h104C426.6,784,432,789.4,432,796z"/>
	<path class="st1" d="M296,796v104c0,3.3-1.3,6.3-3.5,8.5c-2.2,2.2-5.2,3.5-8.5,3.5H180c-3.3,0-6.3-1.4-8.5-3.5
		c-2.2-2.2-3.5-5.2-3.5-8.5V796c0-6.6,5.4-12,12-12h104C290.6,784,296,789.4,296,796z"/>
	<path class="st1" d="M704,648v128c-9.9,0-19.5-1.1-28.8-3.3c-3-0.7-6-1.5-8.9-2.4c-5.2-1.6-10.2-3.5-15-5.7
		c-12.4-5.6-23.8-13.2-33.7-22.3c-1.4-1.3-2.8-2.6-4.1-3.9c-3.2-3.2-6.3-6.6-9.1-10.1c-7.4-9.2-13.6-19.5-18.3-30.5
		c-2-4.8-3.8-9.7-5.2-14.8c-0.6-2.1-1.1-4.2-1.6-6.4c-1-4.5-1.8-9-2.4-13.6L576,664v-4c0-1,0.1-1.9,0.3-2.8c1.3-5.3,6-9.2,11.7-9.2
		H704z"/>
	<path class="st1" d="M840,660v4l-0.9-0.9c-0.5,4.6-1.3,9.2-2.4,13.6c-0.5,2.1-1,4.3-1.6,6.4c-1.4,5.1-3.2,10-5.2,14.8
		c-4.7,11-10.9,21.3-18.3,30.5c-2.8,3.5-5.9,6.9-9.1,10.1c-1.3,1.3-2.7,2.6-4.1,3.9c-9.9,9.1-21.3,16.7-33.7,22.3
		c-4.9,2.2-9.9,4.1-15,5.7c-2.9,0.9-5.9,1.7-8.9,2.4c-9.2,2.1-18.9,3.3-28.8,3.3V648h116c5.7,0,10.4,4,11.7,9.2
		C839.9,658.1,840,659,840,660z"/>
	<path class="st1" d="M704,784v128h-36c-0.5-1.9-1-3.8-1.6-5.6c-3.3-10.9-8.1-21.2-14.1-30.7c-2.6-4-5.3-8-8.3-11.7
		c-3-3.7-6.1-7.2-9.5-10.5c-6-6-12.7-11.5-19.8-16.2c-10.8-7.2-22.8-12.8-35.6-16.4c-1-0.3-2.1-0.6-3.1-0.9v-24c0-6.6,5.4-12,12-12
		H704z"/>
	<path class="st1" d="M840,796v24c-1,0.3-2.1,0.5-3.1,0.9c-12.8,3.6-24.8,9.2-35.6,16.4c-7.1,4.7-13.8,10.2-19.8,16.2
		c-3.3,3.3-6.5,6.9-9.5,10.5c-3,3.7-5.8,7.6-8.3,11.7c-6,9.5-10.8,19.7-14.1,30.7c-0.6,1.9-1.1,3.7-1.6,5.6h-36V784h116
		C834.6,784,840,789.4,840,796z"/>
	<rect x="984" y="648" class="st1" width="128" height="64"/>
	<path class="st1" d="M976,648v64H860c-4.3,0-8.1-2.3-10.2-5.8c-1.1-1.8-1.8-4-1.8-6.2v-40c0-6.6,5.4-12,12-12H976z"/>
	<path class="st1" d="M976,796v40c0,2.3-0.7,4.4-1.8,6.2c-2.1,3.5-5.9,5.8-10.2,5.8H848v-64h116C970.6,784,976,789.4,976,796z"/>
	<path class="st1" d="M1112,796v40c0,2.3-0.7,4.4-1.8,6.2c-2.1,3.5-5.9,5.8-10.2,5.8H996c-4.3,0-8.1-2.3-10.2-5.8
		c-1.1-1.8-1.8-4-1.8-6.2v-40c0-6.6,5.4-12,12-12h104C1106.6,784,1112,789.4,1112,796z"/>
	<rect x="304" y="928" class="st1" width="128" height="128"/>
	<rect x="440" y="1064" class="st1" width="128" height="128"/>
	<path class="st1" d="M296,928v128H168V940c0-6.6,5.4-12,12-12H296z"/>
	<path class="st1" d="M568,940v116H440V928h116C562.6,928,568,933.4,568,940z"/>
	<path class="st1" d="M432,1076v104c0,3.3-1.3,6.3-3.5,8.5c-2.2,2.2-5.2,3.5-8.5,3.5H316c-3.3,0-6.3-1.3-8.5-3.5
		c-2.2-2.2-3.5-5.2-3.5-8.5v-104c0-6.6,5.4-12,12-12h104C426.6,1064,432,1069.4,432,1076z"/>
	<path class="st1" d="M296,1076v104c0,3.3-1.3,6.3-3.5,8.5c-2.2,2.2-5.2,3.5-8.5,3.5H180c-3.3,0-6.3-1.3-8.5-3.5
		c-2.2-2.2-3.5-5.2-3.5-8.5v-104c0-6.6,5.4-12,12-12h104C290.6,1064,296,1069.4,296,1076z"/>
	<path class="st1" d="M704,928v128c-9.9,0-19.5-1.1-28.8-3.3c-3-0.7-6-1.5-8.9-2.4c-5.2-1.6-10.2-3.5-15-5.7
		c-12.4-5.6-23.8-13.2-33.7-22.3c-1.4-1.3-2.8-2.6-4.1-3.9c-3.2-3.2-6.3-6.6-9.1-10.1c-7.4-9.2-13.6-19.5-18.3-30.5
		c-2-4.8-3.8-9.7-5.2-14.8c-0.6-2.1-1.1-4.2-1.6-6.4c-1-4.5-1.8-9-2.4-13.6L576,944v-4c0-1,0.1-1.9,0.3-2.8c1.3-5.3,6-9.2,11.7-9.2
		H704z"/>
	<path class="st1" d="M840,940v4l-0.9-0.9c-0.5,4.6-1.3,9.2-2.4,13.6c-0.5,2.1-1,4.3-1.6,6.4c-1.4,5.1-3.2,10-5.2,14.8
		c-4.7,11-10.9,21.3-18.3,30.5c-2.8,3.5-5.9,6.9-9.1,10.1c-1.3,1.3-2.7,2.6-4.1,3.9c-9.9,9.1-21.3,16.7-33.7,22.3
		c-4.9,2.2-9.9,4.1-15,5.7c-2.9,0.9-5.9,1.7-8.9,2.4c-9.2,2.1-18.9,3.3-28.8,3.3V928h116c5.7,0,10.4,4,11.7,9.2
		C839.9,938.1,840,939,840,940z"/>
	<path class="st1" d="M704,1064v128h-36c-0.5-1.9-1-3.8-1.6-5.6c-3.3-10.9-8.1-21.2-14.1-30.7c-2.6-4-5.3-8-8.3-11.7
		c-3-3.7-6.1-7.2-9.5-10.5c-6-6-12.7-11.5-19.8-16.2c-10.8-7.2-22.8-12.8-35.6-16.4c-1-0.3-2.1-0.6-3.1-0.8v-24c0-6.6,5.4-12,12-12
		H704z"/>
	<path class="st1" d="M840,1076v24c-1,0.3-2.1,0.5-3.1,0.8c-12.8,3.6-24.8,9.2-35.6,16.4c-7.1,4.7-13.8,10.2-19.8,16.2
		c-3.3,3.3-6.5,6.9-9.5,10.5c-3,3.7-5.8,7.6-8.3,11.7c-6,9.5-10.8,19.7-14.1,30.7c-0.6,1.9-1.1,3.7-1.6,5.6h-36v-128h116
		C834.6,1064,840,1069.4,840,1076z"/>
	<rect x="984" y="928" class="st1" width="128" height="64"/>
	<path class="st1" d="M976,928v64H860c-4.3,0-8.1-2.3-10.2-5.8c-1.1-1.8-1.8-4-1.8-6.2v-40c0-6.6,5.4-12,12-12H976z"/>
	<path class="st1" d="M976,1076v40c0,2.3-0.7,4.4-1.8,6.2c-2.1,3.5-5.9,5.8-10.2,5.8H848v-64h116C970.6,1064,976,1069.4,976,1076z"
		/>
	<path class="st1" d="M1112,1076v40c0,2.3-0.7,4.4-1.8,6.2c-2.1,3.5-5.9,5.8-10.2,5.8H996c-4.3,0-8.1-2.3-10.2-5.8
		c-1.1-1.8-1.8-4-1.8-6.2v-40c0-6.6,5.4-12,12-12h104C1106.6,1064,1112,1069.4,1112,1076z"/>
</g>
<g id="ground2">
	<polygon class="st2" points="416,132 400,148 384,132 368,148 352,132 336,148 320,132 304,148 304,156 304,164 304,172 320,156 
		336,172 352,156 368,172 384,156 400,172 416,156 432,172 432,164 432,156 432,148 	"/>
	<polygon class="st2" points="416,176 400,192 384,176 368,192 352,176 336,192 320,176 304,192 304,200 304,208 304,216 320,200 
		336,216 352,200 368,216 384,200 400,216 416,200 432,216 432,208 432,200 432,192 	"/>
	<polygon class="st2" points="552,224 536,240 520,224 504,240 488,224 472,240 456,224 440,240 440,248 440,256 440,264 456,248 
		472,264 488,248 504,264 520,248 536,264 552,248 568,264 568,256 568,248 568,240 	"/>
	<polygon class="st2" points="552,268 536,284 520,268 504,284 488,268 472,284 456,268 440,284 440,292 440,300 440,308 456,292 
		472,308 488,292 504,308 520,292 536,308 552,292 568,308 568,300 568,292 568,284 	"/>
	<polygon class="st2" points="552,312 536,328 520,312 504,328 488,312 472,328 456,312 440,328 440,336 440,344 440,352 456,336 
		472,352 488,336 504,352 520,336 536,352 552,336 568,352 568,344 568,336 568,328 	"/>
	<polygon class="st2" points="416,88 400,104 384,88 368,104 352,88 336,104 320,88 304,104 304,112 304,120 304,128 320,112 
		336,128 352,112 368,128 384,112 400,128 416,112 432,128 432,120 432,112 432,104 	"/>
	<polygon class="st2" points="280,132 264,148 248,132 232,148 216,132 200,148 184,132 168,148 168,156 168,164 168,172 184,156 
		200,172 216,156 232,172 248,156 264,172 280,156 296,172 296,164 296,156 296,148 	"/>
	<polygon class="st2" points="280,176 264,192 248,176 232,192 216,176 200,192 184,176 168,192 168,200 168,208 168,216 184,200 
		200,216 216,200 232,216 248,200 264,216 280,200 296,216 296,208 296,200 296,192 	"/>
	<polygon class="st2" points="280,88 264,104 248,88 232,104 216,88 200,104 184,88 168,104 168,112 168,120 168,128 184,112 
		200,128 216,112 232,128 248,112 264,128 280,112 296,128 296,120 296,112 296,104 	"/>
	<polygon class="st2" points="552,132 536,148 520,132 504,148 488,132 472,148 456,132 440,148 440,156 440,164 440,172 456,156 
		472,172 488,156 504,172 520,156 536,172 552,156 568,172 568,164 568,156 568,148 	"/>
	<polygon class="st2" points="552,176 536,192 520,176 504,192 488,176 472,192 456,176 440,192 440,200 440,208 440,216 456,200 
		472,216 488,200 504,216 520,200 536,216 552,200 568,216 568,208 568,200 568,192 	"/>
	<polygon class="st2" points="552,88 536,104 520,88 504,104 488,88 472,104 456,88 440,104 440,112 440,120 440,128 456,112 
		472,128 488,112 504,128 520,112 536,128 552,112 568,128 568,120 568,112 568,104 	"/>
	<polygon class="st2" points="416,224 400,240 384,224 368,240 352,224 336,240 320,224 304,240 304,248 304,256 304,264 320,248 
		336,264 352,248 368,264 384,248 400,264 416,248 432,264 432,256 432,248 432,240 	"/>
	<polygon class="st2" points="416,268 400,284 384,268 368,284 352,268 336,284 320,268 304,284 304,292 304,300 304,308 320,292 
		336,308 352,292 368,308 384,292 400,308 416,292 432,308 432,300 432,292 432,284 	"/>
	<path class="st2" d="M432,328v12c0,3.3-1.3,6.3-3.5,8.5L416,336l-16,16l-16-16l-16,16l-16-16l-16,16l-16-16l-12.5,12.5
		c-2.2-2.2-3.5-5.2-3.5-8.5v-12l16-16l16,16l16-16l16,16l16-16l16,16l16-16L432,328z"/>
	<polygon class="st2" points="280,268 264,284 248,268 232,284 216,268 200,284 184,268 168,284 168,292 168,300 168,308 184,292 
		200,308 216,292 232,308 248,292 264,308 280,292 296,308 296,300 296,292 296,284 	"/>
	<path class="st2" d="M296,328v12c0,3.3-1.3,6.3-3.5,8.5L280,336l-16,16l-16-16l-16,16l-16-16l-16,16l-16-16l-12.5,12.5
		c-2.2-2.2-3.5-5.2-3.5-8.5v-12l16-16l16,16l16-16l16,16l16-16l16,16l16-16L296,328z"/>
	<polygon class="st2" points="280,224 264,240 248,224 232,240 216,224 200,240 184,224 168,240 168,248 168,256 168,264 184,248 
		200,264 216,248 232,264 248,248 264,264 280,248 296,264 296,256 296,248 296,240 	"/>
	<path class="st2" d="M704,148v24l-16-16l-16,16l-16-16l-16,16l-16-16l-16,16l-3.6-3.6c-7.4-9.2-13.6-19.5-18.3-30.5l5.9-5.9l16,16
		l16-16l16,16l16-16l16,16l16-16L704,148z"/>
	<path class="st2" d="M704,192v24l-16-16l-12.8,12.8c-3-0.7-6-1.5-8.9-2.4L656,200l-4.7,4.7c-12.4-5.6-23.8-13.2-33.7-22.3l6.4-6.4
		l16,16l16-16l16,16l16-16L704,192z"/>
	<path class="st2" d="M704,104v24l-16-16l-16,16l-16-16l-16,16l-16-16l-16,16l-16-16l-11.1,11.1c-0.6-2.1-1.1-4.2-1.6-6.4
		c-1-4.5-1.8-9-2.4-13.6L592,88l16,16l16-16l16,16l16-16l16,16l16-16L704,104z"/>
	<path class="st2" d="M829.9,137.9c-4.7,11-10.9,21.3-18.3,30.5L808,172l-16-16l-16,16l-16-16l-16,16l-16-16l-16,16v-24l16-16l16,16
		l16-16l16,16l16-16l16,16l16-16L829.9,137.9z"/>
	<path class="st2" d="M798.4,182.4c-9.9,9.1-21.3,16.7-33.7,22.3L760,200l-10.4,10.4c-2.9,0.9-5.9,1.7-8.9,2.4L728,200l-16,16v-24
		l16-16l16,16l16-16l16,16l16-16L798.4,182.4z"/>
	<path class="st2" d="M839.1,103.1c-0.5,4.6-1.3,9.2-2.4,13.6c-0.5,2.1-1,4.3-1.6,6.4L824,112l-16,16l-16-16l-16,16l-16-16l-16,16
		l-16-16l-16,16v-24l16-16l16,16l16-16l16,16l16-16l16,16l16-16L839.1,103.1z"/>
	<path class="st2" d="M704,284v24l-16-16l-16,16l-16-16l-12,12c-3-3.7-6.1-7.2-9.5-10.5c-6-6-12.7-11.5-19.8-16.2l9.3-9.3l16,16
		l16-16l16,16l16-16L704,284z"/>
	<path class="st2" d="M704,328v24l-16-16l-16,16l-5.6-5.6c-3.3-10.9-8.1-21.2-14.1-30.7l3.7-3.7l16,16l16-16L704,328z"/>
	<path class="st2" d="M704,240v24l-16-16l-16,16l-16-16l-16,16l-16-16l-16,16l-16-16l-12.9,12.9c-1-0.3-2.1-0.6-3.1-0.9v-20l16-16
		l16,16l16-16l16,16l16-16l16,16l16-16L704,240z"/>
	<path class="st2" d="M801.3,277.3c-7.1,4.7-13.8,10.2-19.8,16.2c-3.3,3.3-6.5,6.9-9.5,10.5l-12-12l-16,16l-16-16l-16,16v-24l16-16
		l16,16l16-16l16,16l16-16L801.3,277.3z"/>
	<path class="st2" d="M763.7,315.7c-6,9.5-10.8,19.7-14.1,30.7L744,352l-16-16l-16,16v-24l16-16l16,16l16-16L763.7,315.7z"/>
	<path class="st2" d="M840,240v20c-1,0.3-2.1,0.5-3.1,0.9L824,248l-16,16l-16-16l-16,16l-16-16l-16,16l-16-16l-16,16v-24l16-16
		l16,16l16-16l16,16l16-16l16,16l16-16L840,240z"/>
	<polygon class="st2" points="1112,148 1112,152 984,152 984,148 1000,132 1016,148 1032,132 1048,148 1064,132 1080,148 1096,132 	
		"/>
	<polygon class="st2" points="1096,88 1080,104 1064,88 1048,104 1032,88 1016,104 1000,88 984,104 984,112 984,120 984,128 
		1000,112 1016,128 1032,112 1048,128 1064,112 1080,128 1096,112 1112,128 1112,120 1112,112 1112,104 	"/>
	<path class="st2" d="M976,148v4H860c-4.3,0-8.1-2.3-10.2-5.8L864,132l16,16l16-16l16,16l16-16l16,16l16-16L976,148z"/>
	<polygon class="st2" points="960,88 944,104 928,88 912,104 896,88 880,104 864,88 848,104 848,112 848,120 848,128 864,112 
		880,128 896,112 912,128 928,112 944,128 960,112 976,128 976,120 976,112 976,104 	"/>
	<path class="st2" d="M974.2,282.2c-2.1,3.5-5.9,5.8-10.2,5.8H848v-4l16-16l16,16l16-16l16,16l16-16l16,16l16-16L974.2,282.2z"/>
	<polygon class="st2" points="960,224 944,240 928,224 912,240 896,224 880,240 864,224 848,240 848,248 848,256 848,264 864,248 
		880,264 896,248 912,264 928,248 944,264 960,248 976,264 976,256 976,248 976,240 	"/>
	<path class="st2" d="M1110.2,282.2c-2.1,3.5-5.9,5.8-10.2,5.8H996c-4.3,0-8.1-2.3-10.2-5.8L1000,268l16,16l16-16l16,16l16-16l16,16
		l16-16L1110.2,282.2z"/>
	<polygon class="st2" points="1096,224 1080,240 1064,224 1048,240 1032,224 1016,240 1000,224 984,240 984,248 984,256 984,264 
		1000,248 1016,264 1032,248 1048,264 1064,248 1080,264 1096,248 1112,264 1112,256 1112,248 1112,240 	"/>
	<polygon class="st2" points="416,412 400,428 384,412 368,428 352,412 336,428 320,412 304,428 304,436 304,444 304,452 320,436 
		336,452 352,436 368,452 384,436 400,452 416,436 432,452 432,444 432,436 432,428 	"/>
	<polygon class="st2" points="416,456 400,472 384,456 368,472 352,456 336,472 320,456 304,472 304,480 304,488 304,496 320,480 
		336,496 352,480 368,496 384,480 400,496 416,480 432,496 432,488 432,480 432,472 	"/>
	<polygon class="st2" points="552,504 536,520 520,504 504,520 488,504 472,520 456,504 440,520 440,528 440,536 440,544 456,528 
		472,544 488,528 504,544 520,528 536,544 552,528 568,544 568,536 568,528 568,520 	"/>
	<polygon class="st2" points="552,548 536,564 520,548 504,564 488,548 472,564 456,548 440,564 440,572 440,580 440,588 456,572 
		472,588 488,572 504,588 520,572 536,588 552,572 568,588 568,580 568,572 568,564 	"/>
	<polygon class="st2" points="552,592 536,608 520,592 504,608 488,592 472,608 456,592 440,608 440,616 440,624 440,632 456,616 
		472,632 488,616 504,632 520,616 536,632 552,616 568,632 568,624 568,616 568,608 	"/>
	<polygon class="st2" points="416,368 400,384 384,368 368,384 352,368 336,384 320,368 304,384 304,392 304,400 304,408 320,392 
		336,408 352,392 368,408 384,392 400,408 416,392 432,408 432,400 432,392 432,384 	"/>
	<polygon class="st2" points="280,412 264,428 248,412 232,428 216,412 200,428 184,412 168,428 168,436 168,444 168,452 184,436 
		200,452 216,436 232,452 248,436 264,452 280,436 296,452 296,444 296,436 296,428 	"/>
	<polygon class="st2" points="280,456 264,472 248,456 232,472 216,456 200,472 184,456 168,472 168,480 168,488 168,496 184,480 
		200,496 216,480 232,496 248,480 264,496 280,480 296,496 296,488 296,480 296,472 	"/>
	<polygon class="st2" points="280,368 264,384 248,368 232,384 216,368 200,384 184,368 168,384 168,392 168,400 168,408 184,392 
		200,408 216,392 232,408 248,392 264,408 280,392 296,408 296,400 296,392 296,384 	"/>
	<polygon class="st2" points="552,412 536,428 520,412 504,428 488,412 472,428 456,412 440,428 440,436 440,444 440,452 456,436 
		472,452 488,436 504,452 520,436 536,452 552,436 568,452 568,444 568,436 568,428 	"/>
	<polygon class="st2" points="552,456 536,472 520,456 504,472 488,456 472,472 456,456 440,472 440,480 440,488 440,496 456,480 
		472,496 488,480 504,496 520,480 536,496 552,480 568,496 568,488 568,480 568,472 	"/>
	<polygon class="st2" points="552,368 536,384 520,368 504,384 488,368 472,384 456,368 440,384 440,392 440,400 440,408 456,392 
		472,408 488,392 504,408 520,392 536,408 552,392 568,408 568,400 568,392 568,384 	"/>
	<polygon class="st2" points="416,504 400,520 384,504 368,520 352,504 336,520 320,504 304,520 304,528 304,536 304,544 320,528 
		336,544 352,528 368,544 384,528 400,544 416,528 432,544 432,536 432,528 432,520 	"/>
	<polygon class="st2" points="416,548 400,564 384,548 368,564 352,548 336,564 320,548 304,564 304,572 304,580 304,588 320,572 
		336,588 352,572 368,588 384,572 400,588 416,572 432,588 432,580 432,572 432,564 	"/>
	<path class="st2" d="M432,608v12c0,3.3-1.3,6.3-3.5,8.5L416,616l-16,16l-16-16l-16,16l-16-16l-16,16l-16-16l-12.5,12.5
		c-2.2-2.2-3.5-5.2-3.5-8.5v-12l16-16l16,16l16-16l16,16l16-16l16,16l16-16L432,608z"/>
	<polygon class="st2" points="280,548 264,564 248,548 232,564 216,548 200,564 184,548 168,564 168,572 168,580 168,588 184,572 
		200,588 216,572 232,588 248,572 264,588 280,572 296,588 296,580 296,572 296,564 	"/>
	<path class="st2" d="M296,608v12c0,3.3-1.3,6.3-3.5,8.5L280,616l-16,16l-16-16l-16,16l-16-16l-16,16l-16-16l-12.5,12.5
		c-2.2-2.2-3.5-5.2-3.5-8.5v-12l16-16l16,16l16-16l16,16l16-16l16,16l16-16L296,608z"/>
	<polygon class="st2" points="280,504 264,520 248,504 232,520 216,504 200,520 184,504 168,520 168,528 168,536 168,544 184,528 
		200,544 216,528 232,544 248,528 264,544 280,528 296,544 296,536 296,528 296,520 	"/>
	<path class="st2" d="M704,428v24l-16-16l-16,16l-16-16l-16,16l-16-16l-16,16l-3.6-3.6c-7.4-9.2-13.6-19.5-18.3-30.5l5.9-5.9l16,16
		l16-16l16,16l16-16l16,16l16-16L704,428z"/>
	<path class="st2" d="M704,472v24l-16-16l-12.8,12.8c-3-0.7-6-1.5-8.9-2.4L656,480l-4.7,4.7c-12.4-5.6-23.8-13.2-33.7-22.3l6.4-6.4
		l16,16l16-16l16,16l16-16L704,472z"/>
	<path class="st2" d="M704,384v24l-16-16l-16,16l-16-16l-16,16l-16-16l-16,16l-16-16l-11.1,11.1c-0.6-2.1-1.1-4.2-1.6-6.4
		c-1-4.5-1.8-9-2.4-13.6L592,368l16,16l16-16l16,16l16-16l16,16l16-16L704,384z"/>
	<path class="st2" d="M829.9,417.9c-4.7,11-10.9,21.3-18.3,30.5L808,452l-16-16l-16,16l-16-16l-16,16l-16-16l-16,16v-24l16-16l16,16
		l16-16l16,16l16-16l16,16l16-16L829.9,417.9z"/>
	<path class="st2" d="M798.4,462.4c-9.9,9.1-21.3,16.7-33.7,22.3L760,480l-10.4,10.4c-2.9,0.9-5.9,1.7-8.9,2.4L728,480l-16,16v-24
		l16-16l16,16l16-16l16,16l16-16L798.4,462.4z"/>
	<path class="st2" d="M839.1,383.1c-0.5,4.6-1.3,9.2-2.4,13.6c-0.5,2.1-1,4.3-1.6,6.4L824,392l-16,16l-16-16l-16,16l-16-16l-16,16
		l-16-16l-16,16v-24l16-16l16,16l16-16l16,16l16-16l16,16l16-16L839.1,383.1z"/>
	<path class="st2" d="M704,564v24l-16-16l-16,16l-16-16l-12,12c-3-3.7-6.1-7.2-9.5-10.5c-6-6-12.7-11.5-19.8-16.2l9.3-9.3l16,16
		l16-16l16,16l16-16L704,564z"/>
	<path class="st2" d="M704,608v24l-16-16l-16,16l-5.6-5.6c-3.3-10.9-8.1-21.2-14.1-30.7l3.7-3.7l16,16l16-16L704,608z"/>
	<path class="st2" d="M704,520v24l-16-16l-16,16l-16-16l-16,16l-16-16l-16,16l-16-16l-12.9,12.9c-1-0.3-2.1-0.6-3.1-0.9v-20l16-16
		l16,16l16-16l16,16l16-16l16,16l16-16L704,520z"/>
	<path class="st2" d="M801.3,557.3c-7.1,4.7-13.8,10.2-19.8,16.2c-3.3,3.3-6.5,6.9-9.5,10.5l-12-12l-16,16l-16-16l-16,16v-24l16-16
		l16,16l16-16l16,16l16-16L801.3,557.3z"/>
	<path class="st2" d="M763.7,595.7c-6,9.5-10.8,19.7-14.1,30.7L744,632l-16-16l-16,16v-24l16-16l16,16l16-16L763.7,595.7z"/>
	<path class="st2" d="M840,520v20c-1,0.3-2.1,0.5-3.1,0.9L824,528l-16,16l-16-16l-16,16l-16-16l-16,16l-16-16l-16,16v-24l16-16
		l16,16l16-16l16,16l16-16l16,16l16-16L840,520z"/>
	<polygon class="st2" points="1112,428 1112,432 984,432 984,428 1000,412 1016,428 1032,412 1048,428 1064,412 1080,428 1096,412 	
		"/>
	<polygon class="st2" points="1096,368 1080,384 1064,368 1048,384 1032,368 1016,384 1000,368 984,384 984,392 984,400 984,408 
		1000,392 1016,408 1032,392 1048,408 1064,392 1080,408 1096,392 1112,408 1112,400 1112,392 1112,384 	"/>
	<path class="st2" d="M976,428v4H860c-4.3,0-8.1-2.3-10.2-5.8L864,412l16,16l16-16l16,16l16-16l16,16l16-16L976,428z"/>
	<polygon class="st2" points="960,368 944,384 928,368 912,384 896,368 880,384 864,368 848,384 848,392 848,400 848,408 864,392 
		880,408 896,392 912,408 928,392 944,408 960,392 976,408 976,400 976,392 976,384 	"/>
	<path class="st2" d="M974.2,562.2c-2.1,3.5-5.9,5.8-10.2,5.8H848v-4l16-16l16,16l16-16l16,16l16-16l16,16l16-16L974.2,562.2z"/>
	<polygon class="st2" points="960,504 944,520 928,504 912,520 896,504 880,520 864,504 848,520 848,528 848,536 848,544 864,528 
		880,544 896,528 912,544 928,528 944,544 960,528 976,544 976,536 976,528 976,520 	"/>
	<path class="st2" d="M1110.2,562.2c-2.1,3.5-5.9,5.8-10.2,5.8H996c-4.3,0-8.1-2.3-10.2-5.8L1000,548l16,16l16-16l16,16l16-16l16,16
		l16-16L1110.2,562.2z"/>
	<polygon class="st2" points="1096,504 1080,520 1064,504 1048,520 1032,504 1016,520 1000,504 984,520 984,528 984,536 984,544 
		1000,528 1016,544 1032,528 1048,544 1064,528 1080,544 1096,528 1112,544 1112,536 1112,528 1112,520 	"/>
	<polygon class="st2" points="416,692 400,708 384,692 368,708 352,692 336,708 320,692 304,708 304,716 304,724 304,732 320,716 
		336,732 352,716 368,732 384,716 400,732 416,716 432,732 432,724 432,716 432,708 	"/>
	<polygon class="st2" points="416,736 400,752 384,736 368,752 352,736 336,752 320,736 304,752 304,760 304,768 304,776 320,760 
		336,776 352,760 368,776 384,760 400,776 416,760 432,776 432,768 432,760 432,752 	"/>
	<polygon class="st2" points="552,784 536,800 520,784 504,800 488,784 472,800 456,784 440,800 440,808 440,816 440,824 456,808 
		472,824 488,808 504,824 520,808 536,824 552,808 568,824 568,816 568,808 568,800 	"/>
	<polygon class="st2" points="552,828 536,844 520,828 504,844 488,828 472,844 456,828 440,844 440,852 440,860 440,868 456,852 
		472,868 488,852 504,868 520,852 536,868 552,852 568,868 568,860 568,852 568,844 	"/>
	<polygon class="st2" points="552,872 536,888 520,872 504,888 488,872 472,888 456,872 440,888 440,896 440,904 440,912 456,896 
		472,912 488,896 504,912 520,896 536,912 552,896 568,912 568,904 568,896 568,888 	"/>
	<polygon class="st2" points="416,648 400,664 384,648 368,664 352,648 336,664 320,648 304,664 304,672 304,680 304,688 320,672 
		336,688 352,672 368,688 384,672 400,688 416,672 432,688 432,680 432,672 432,664 	"/>
	<polygon class="st2" points="280,692 264,708 248,692 232,708 216,692 200,708 184,692 168,708 168,716 168,724 168,732 184,716 
		200,732 216,716 232,732 248,716 264,732 280,716 296,732 296,724 296,716 296,708 	"/>
	<polygon class="st2" points="280,736 264,752 248,736 232,752 216,736 200,752 184,736 168,752 168,760 168,768 168,776 184,760 
		200,776 216,760 232,776 248,760 264,776 280,760 296,776 296,768 296,760 296,752 	"/>
	<polygon class="st2" points="280,648 264,664 248,648 232,664 216,648 200,664 184,648 168,664 168,672 168,680 168,688 184,672 
		200,688 216,672 232,688 248,672 264,688 280,672 296,688 296,680 296,672 296,664 	"/>
	<polygon class="st2" points="552,692 536,708 520,692 504,708 488,692 472,708 456,692 440,708 440,716 440,724 440,732 456,716 
		472,732 488,716 504,732 520,716 536,732 552,716 568,732 568,724 568,716 568,708 	"/>
	<polygon class="st2" points="552,736 536,752 520,736 504,752 488,736 472,752 456,736 440,752 440,760 440,768 440,776 456,760 
		472,776 488,760 504,776 520,760 536,776 552,760 568,776 568,768 568,760 568,752 	"/>
	<polygon class="st2" points="552,648 536,664 520,648 504,664 488,648 472,664 456,648 440,664 440,672 440,680 440,688 456,672 
		472,688 488,672 504,688 520,672 536,688 552,672 568,688 568,680 568,672 568,664 	"/>
	<polygon class="st2" points="416,784 400,800 384,784 368,800 352,784 336,800 320,784 304,800 304,808 304,816 304,824 320,808 
		336,824 352,808 368,824 384,808 400,824 416,808 432,824 432,816 432,808 432,800 	"/>
	<polygon class="st2" points="416,828 400,844 384,828 368,844 352,828 336,844 320,828 304,844 304,852 304,860 304,868 320,852 
		336,868 352,852 368,868 384,852 400,868 416,852 432,868 432,860 432,852 432,844 	"/>
	<path class="st2" d="M432,888v12c0,3.3-1.3,6.3-3.5,8.5L416,896l-16,16l-16-16l-16,16l-16-16l-16,16l-16-16l-12.5,12.5
		c-2.2-2.2-3.5-5.2-3.5-8.5v-12l16-16l16,16l16-16l16,16l16-16l16,16l16-16L432,888z"/>
	<polygon class="st2" points="280,828 264,844 248,828 232,844 216,828 200,844 184,828 168,844 168,852 168,860 168,868 184,852 
		200,868 216,852 232,868 248,852 264,868 280,852 296,868 296,860 296,852 296,844 	"/>
	<path class="st2" d="M296,888v12c0,3.3-1.3,6.3-3.5,8.5L280,896l-16,16l-16-16l-16,16l-16-16l-16,16l-16-16l-12.5,12.5
		c-2.2-2.2-3.5-5.2-3.5-8.5v-12l16-16l16,16l16-16l16,16l16-16l16,16l16-16L296,888z"/>
	<polygon class="st2" points="280,784 264,800 248,784 232,800 216,784 200,800 184,784 168,800 168,808 168,816 168,824 184,808 
		200,824 216,808 232,824 248,808 264,824 280,808 296,824 296,816 296,808 296,800 	"/>
	<path class="st2" d="M704,708v24l-16-16l-16,16l-16-16l-16,16l-16-16l-16,16l-3.6-3.6c-7.4-9.2-13.6-19.5-18.3-30.5l5.9-5.9l16,16
		l16-16l16,16l16-16l16,16l16-16L704,708z"/>
	<path class="st2" d="M704,752v24l-16-16l-12.8,12.8c-3-0.7-6-1.5-8.9-2.4L656,760l-4.7,4.7c-12.4-5.6-23.8-13.2-33.7-22.3l6.4-6.4
		l16,16l16-16l16,16l16-16L704,752z"/>
	<path class="st2" d="M704,664v24l-16-16l-16,16l-16-16l-16,16l-16-16l-16,16l-16-16l-11.1,11.1c-0.6-2.1-1.1-4.2-1.6-6.4
		c-1-4.5-1.8-9-2.4-13.6L592,648l16,16l16-16l16,16l16-16l16,16l16-16L704,664z"/>
	<path class="st2" d="M829.9,697.9c-4.7,11-10.9,21.3-18.3,30.5L808,732l-16-16l-16,16l-16-16l-16,16l-16-16l-16,16v-24l16-16l16,16
		l16-16l16,16l16-16l16,16l16-16L829.9,697.9z"/>
	<path class="st2" d="M798.4,742.4c-9.9,9.1-21.3,16.7-33.7,22.3L760,760l-10.4,10.4c-2.9,0.9-5.9,1.7-8.9,2.4L728,760l-16,16v-24
		l16-16l16,16l16-16l16,16l16-16L798.4,742.4z"/>
	<path class="st2" d="M839.1,663.1c-0.5,4.6-1.3,9.2-2.4,13.6c-0.5,2.1-1,4.3-1.6,6.4L824,672l-16,16l-16-16l-16,16l-16-16l-16,16
		l-16-16l-16,16v-24l16-16l16,16l16-16l16,16l16-16l16,16l16-16L839.1,663.1z"/>
	<path class="st2" d="M704,844v24l-16-16l-16,16l-16-16l-12,12c-3-3.7-6.1-7.2-9.5-10.5c-6-6-12.7-11.5-19.8-16.2l9.3-9.3l16,16
		l16-16l16,16l16-16L704,844z"/>
	<path class="st2" d="M704,888v24l-16-16l-16,16l-5.6-5.6c-3.3-10.9-8.1-21.2-14.1-30.7l3.7-3.7l16,16l16-16L704,888z"/>
	<path class="st2" d="M704,800v24l-16-16l-16,16l-16-16l-16,16l-16-16l-16,16l-16-16l-12.9,12.9c-1-0.3-2.1-0.6-3.1-0.9v-20l16-16
		l16,16l16-16l16,16l16-16l16,16l16-16L704,800z"/>
	<path class="st2" d="M801.3,837.3c-7.1,4.7-13.8,10.2-19.8,16.2c-3.3,3.3-6.5,6.9-9.5,10.5l-12-12l-16,16l-16-16l-16,16v-24l16-16
		l16,16l16-16l16,16l16-16L801.3,837.3z"/>
	<path class="st2" d="M763.7,875.7c-6,9.5-10.8,19.7-14.1,30.7L744,912l-16-16l-16,16v-24l16-16l16,16l16-16L763.7,875.7z"/>
	<path class="st2" d="M840,800v20c-1,0.3-2.1,0.5-3.1,0.9L824,808l-16,16l-16-16l-16,16l-16-16l-16,16l-16-16l-16,16v-24l16-16
		l16,16l16-16l16,16l16-16l16,16l16-16L840,800z"/>
	<polygon class="st2" points="1112,708 1112,712 984,712 984,708 1000,692 1016,708 1032,692 1048,708 1064,692 1080,708 1096,692 	
		"/>
	<polygon class="st2" points="1096,648 1080,664 1064,648 1048,664 1032,648 1016,664 1000,648 984,664 984,672 984,680 984,688 
		1000,672 1016,688 1032,672 1048,688 1064,672 1080,688 1096,672 1112,688 1112,680 1112,672 1112,664 	"/>
	<path class="st2" d="M976,708v4H860c-4.3,0-8.1-2.3-10.2-5.8L864,692l16,16l16-16l16,16l16-16l16,16l16-16L976,708z"/>
	<polygon class="st2" points="960,648 944,664 928,648 912,664 896,648 880,664 864,648 848,664 848,672 848,680 848,688 864,672 
		880,688 896,672 912,688 928,672 944,688 960,672 976,688 976,680 976,672 976,664 	"/>
	<path class="st2" d="M974.2,842.2c-2.1,3.5-5.9,5.8-10.2,5.8H848v-4l16-16l16,16l16-16l16,16l16-16l16,16l16-16L974.2,842.2z"/>
	<polygon class="st2" points="960,784 944,800 928,784 912,800 896,784 880,800 864,784 848,800 848,808 848,816 848,824 864,808 
		880,824 896,808 912,824 928,808 944,824 960,808 976,824 976,816 976,808 976,800 	"/>
	<path class="st2" d="M1110.2,842.2c-2.1,3.5-5.9,5.8-10.2,5.8H996c-4.3,0-8.1-2.3-10.2-5.8L1000,828l16,16l16-16l16,16l16-16l16,16
		l16-16L1110.2,842.2z"/>
	<polygon class="st2" points="1096,784 1080,800 1064,784 1048,800 1032,784 1016,800 1000,784 984,800 984,808 984,816 984,824 
		1000,808 1016,824 1032,808 1048,824 1064,808 1080,824 1096,808 1112,824 1112,816 1112,808 1112,800 	"/>
	<polygon class="st2" points="416,972 400,988 384,972 368,988 352,972 336,988 320,972 304,988 304,996 304,1004 304,1012 320,996 
		336,1012 352,996 368,1012 384,996 400,1012 416,996 432,1012 432,1004 432,996 432,988 	"/>
	<polygon class="st2" points="416,1016 400,1032 384,1016 368,1032 352,1016 336,1032 320,1016 304,1032 304,1040 304,1048 
		304,1056 320,1040 336,1056 352,1040 368,1056 384,1040 400,1056 416,1040 432,1056 432,1048 432,1040 432,1032 	"/>
	<polygon class="st2" points="552,1064 536,1080 520,1064 504,1080 488,1064 472,1080 456,1064 440,1080 440,1088 440,1096 
		440,1104 456,1088 472,1104 488,1088 504,1104 520,1088 536,1104 552,1088 568,1104 568,1096 568,1088 568,1080 	"/>
	<polygon class="st2" points="552,1108 536,1124 520,1108 504,1124 488,1108 472,1124 456,1108 440,1124 440,1132 440,1140 
		440,1148 456,1132 472,1148 488,1132 504,1148 520,1132 536,1148 552,1132 568,1148 568,1140 568,1132 568,1124 	"/>
	<polygon class="st2" points="552,1152 536,1168 520,1152 504,1168 488,1152 472,1168 456,1152 440,1168 440,1176 440,1184 
		440,1192 456,1176 472,1192 488,1176 504,1192 520,1176 536,1192 552,1176 568,1192 568,1184 568,1176 568,1168 	"/>
	<polygon class="st2" points="416,928 400,944 384,928 368,944 352,928 336,944 320,928 304,944 304,952 304,960 304,968 320,952 
		336,968 352,952 368,968 384,952 400,968 416,952 432,968 432,960 432,952 432,944 	"/>
	<polygon class="st2" points="280,972 264,988 248,972 232,988 216,972 200,988 184,972 168,988 168,996 168,1004 168,1012 184,996 
		200,1012 216,996 232,1012 248,996 264,1012 280,996 296,1012 296,1004 296,996 296,988 	"/>
	<polygon class="st2" points="280,1016 264,1032 248,1016 232,1032 216,1016 200,1032 184,1016 168,1032 168,1040 168,1048 
		168,1056 184,1040 200,1056 216,1040 232,1056 248,1040 264,1056 280,1040 296,1056 296,1048 296,1040 296,1032 	"/>
	<polygon class="st2" points="280,928 264,944 248,928 232,944 216,928 200,944 184,928 168,944 168,952 168,960 168,968 184,952 
		200,968 216,952 232,968 248,952 264,968 280,952 296,968 296,960 296,952 296,944 	"/>
	<polygon class="st2" points="552,972 536,988 520,972 504,988 488,972 472,988 456,972 440,988 440,996 440,1004 440,1012 456,996 
		472,1012 488,996 504,1012 520,996 536,1012 552,996 568,1012 568,1004 568,996 568,988 	"/>
	<polygon class="st2" points="552,1016 536,1032 520,1016 504,1032 488,1016 472,1032 456,1016 440,1032 440,1040 440,1048 
		440,1056 456,1040 472,1056 488,1040 504,1056 520,1040 536,1056 552,1040 568,1056 568,1048 568,1040 568,1032 	"/>
	<polygon class="st2" points="552,928 536,944 520,928 504,944 488,928 472,944 456,928 440,944 440,952 440,960 440,968 456,952 
		472,968 488,952 504,968 520,952 536,968 552,952 568,968 568,960 568,952 568,944 	"/>
	<polygon class="st2" points="416,1064 400,1080 384,1064 368,1080 352,1064 336,1080 320,1064 304,1080 304,1088 304,1096 
		304,1104 320,1088 336,1104 352,1088 368,1104 384,1088 400,1104 416,1088 432,1104 432,1096 432,1088 432,1080 	"/>
	<polygon class="st2" points="416,1108 400,1124 384,1108 368,1124 352,1108 336,1124 320,1108 304,1124 304,1132 304,1140 
		304,1148 320,1132 336,1148 352,1132 368,1148 384,1132 400,1148 416,1132 432,1148 432,1140 432,1132 432,1124 	"/>
	<path class="st2" d="M432,1168v12c0,3.3-1.3,6.3-3.5,8.5L416,1176l-16,16l-16-16l-16,16l-16-16l-16,16l-16-16l-12.5,12.5
		c-2.2-2.2-3.5-5.2-3.5-8.5v-12l16-16l16,16l16-16l16,16l16-16l16,16l16-16L432,1168z"/>
	<polygon class="st2" points="280,1108 264,1124 248,1108 232,1124 216,1108 200,1124 184,1108 168,1124 168,1132 168,1140 
		168,1148 184,1132 200,1148 216,1132 232,1148 248,1132 264,1148 280,1132 296,1148 296,1140 296,1132 296,1124 	"/>
	<path class="st2" d="M296,1168v12c0,3.3-1.3,6.3-3.5,8.5L280,1176l-16,16l-16-16l-16,16l-16-16l-16,16l-16-16l-12.5,12.5
		c-2.2-2.2-3.5-5.2-3.5-8.5v-12l16-16l16,16l16-16l16,16l16-16l16,16l16-16L296,1168z"/>
	<polygon class="st2" points="280,1064 264,1080 248,1064 232,1080 216,1064 200,1080 184,1064 168,1080 168,1088 168,1096 
		168,1104 184,1088 200,1104 216,1088 232,1104 248,1088 264,1104 280,1088 296,1104 296,1096 296,1088 296,1080 	"/>
	<path class="st2" d="M704,988v24l-16-16l-16,16l-16-16l-16,16l-16-16l-16,16l-3.6-3.6c-7.4-9.2-13.6-19.5-18.3-30.5l5.9-5.9l16,16
		l16-16l16,16l16-16l16,16l16-16L704,988z"/>
	<path class="st2" d="M704,1032v24l-16-16l-12.8,12.8c-3-0.7-6-1.5-8.9-2.4L656,1040l-4.7,4.7c-12.4-5.6-23.8-13.2-33.7-22.3
		l6.4-6.4l16,16l16-16l16,16l16-16L704,1032z"/>
	<path class="st2" d="M704,944v24l-16-16l-16,16l-16-16l-16,16l-16-16l-16,16l-16-16l-11.1,11.1c-0.6-2.1-1.1-4.2-1.6-6.4
		c-1-4.5-1.8-9-2.4-13.6L592,928l16,16l16-16l16,16l16-16l16,16l16-16L704,944z"/>
	<path class="st2" d="M829.9,977.9c-4.7,11-10.9,21.3-18.3,30.5l-3.6,3.6l-16-16l-16,16l-16-16l-16,16l-16-16l-16,16v-24l16-16
		l16,16l16-16l16,16l16-16l16,16l16-16L829.9,977.9z"/>
	<path class="st2" d="M798.4,1022.4c-9.9,9.1-21.3,16.7-33.7,22.3l-4.7-4.7l-10.4,10.4c-2.9,0.9-5.9,1.7-8.9,2.4L728,1040l-16,16
		v-24l16-16l16,16l16-16l16,16l16-16L798.4,1022.4z"/>
	<path class="st2" d="M839.1,943.1c-0.5,4.6-1.3,9.2-2.4,13.6c-0.5,2.1-1,4.3-1.6,6.4L824,952l-16,16l-16-16l-16,16l-16-16l-16,16
		l-16-16l-16,16v-24l16-16l16,16l16-16l16,16l16-16l16,16l16-16L839.1,943.1z"/>
	<path class="st2" d="M704,1124v24l-16-16l-16,16l-16-16l-12,12c-3-3.7-6.1-7.2-9.5-10.5c-6-6-12.7-11.5-19.8-16.2l9.3-9.3l16,16
		l16-16l16,16l16-16L704,1124z"/>
	<path class="st2" d="M704,1168v24l-16-16l-16,16l-5.6-5.6c-3.3-10.9-8.1-21.2-14.1-30.7l3.7-3.7l16,16l16-16L704,1168z"/>
	<path class="st2" d="M704,1080v24l-16-16l-16,16l-16-16l-16,16l-16-16l-16,16l-16-16l-12.9,12.9c-1-0.3-2.1-0.6-3.1-0.8v-20l16-16
		l16,16l16-16l16,16l16-16l16,16l16-16L704,1080z"/>
	<path class="st2" d="M801.3,1117.3c-7.1,4.7-13.8,10.2-19.8,16.2c-3.3,3.3-6.5,6.9-9.5,10.5l-12-12l-16,16l-16-16l-16,16v-24l16-16
		l16,16l16-16l16,16l16-16L801.3,1117.3z"/>
	<path class="st2" d="M763.7,1155.7c-6,9.5-10.8,19.7-14.1,30.7l-5.6,5.6l-16-16l-16,16v-24l16-16l16,16l16-16L763.7,1155.7z"/>
	<path class="st2" d="M840,1080v20c-1,0.3-2.1,0.5-3.1,0.8L824,1088l-16,16l-16-16l-16,16l-16-16l-16,16l-16-16l-16,16v-24l16-16
		l16,16l16-16l16,16l16-16l16,16l16-16L840,1080z"/>
	<polygon class="st2" points="1112,988 1112,992 984,992 984,988 1000,972 1016,988 1032,972 1048,988 1064,972 1080,988 1096,972 	
		"/>
	<polygon class="st2" points="1096,928 1080,944 1064,928 1048,944 1032,928 1016,944 1000,928 984,944 984,952 984,960 984,968 
		1000,952 1016,968 1032,952 1048,968 1064,952 1080,968 1096,952 1112,968 1112,960 1112,952 1112,944 	"/>
	<path class="st2" d="M976,988v4H860c-4.3,0-8.1-2.3-10.2-5.8L864,972l16,16l16-16l16,16l16-16l16,16l16-16L976,988z"/>
	<polygon class="st2" points="960,928 944,944 928,928 912,944 896,928 880,944 864,928 848,944 848,952 848,960 848,968 864,952 
		880,968 896,952 912,968 928,952 944,968 960,952 976,968 976,960 976,952 976,944 	"/>
	<path class="st2" d="M974.2,1122.2c-2.1,3.5-5.9,5.8-10.2,5.8H848v-4l16-16l16,16l16-16l16,16l16-16l16,16l16-16L974.2,1122.2z"/>
	<polygon class="st2" points="960,1064 944,1080 928,1064 912,1080 896,1064 880,1080 864,1064 848,1080 848,1088 848,1096 
		848,1104 864,1088 880,1104 896,1088 912,1104 928,1088 944,1104 960,1088 976,1104 976,1096 976,1088 976,1080 	"/>
	<path class="st2" d="M1110.2,1122.2c-2.1,3.5-5.9,5.8-10.2,5.8H996c-4.3,0-8.1-2.3-10.2-5.8l14.2-14.2l16,16l16-16l16,16l16-16
		l16,16l16-16L1110.2,1122.2z"/>
	<polygon class="st2" points="1096,1064 1080,1080 1064,1064 1048,1080 1032,1064 1016,1080 1000,1064 984,1080 984,1088 984,1096 
		984,1104 1000,1088 1016,1104 1032,1088 1048,1104 1064,1088 1080,1104 1096,1088 1112,1104 1112,1096 1112,1088 1112,1080 	"/>
</g>
<g id="ground3">
	<polygon class="st3" points="416,88 304,88 304,120 320,104 336,120 352,104 368,120 384,104 400,120 416,104 432,120 432,88 	"/>
	<path class="st3" d="M296,88v32l-16-16l-16,16l-16-16l-16,16l-16-16l-16,16l-16-16l-16,16v-20c0-6.6,5.4-12,12-12H296z"/>
	<path class="st3" d="M568,100v20l-16-16l-16,16l-16-16l-16,16l-16-16l-16,16l-16-16l-16,16V88h116C562.6,88,568,93.4,568,100z"/>
	<path class="st3" d="M296,236v20l-16-16l-16,16l-16-16l-16,16l-16-16l-16,16l-16-16l-16,16v-20c0-6.6,5.4-12,12-12h104
		C290.6,224,296,229.4,296,236z"/>
	<path class="st3" d="M704,88v32l-16-16l-16,16l-16-16l-16,16l-16-16l-16,16l-16-16l-12.8,12.8c-1-4.5-1.8-9-2.4-13.6L576,104v-4
		c0-1,0.1-1.9,0.3-2.8c1.3-5.3,6-9.2,11.7-9.2H704z"/>
	<path class="st3" d="M840,100v4l-0.9-0.9c-0.5,4.6-1.3,9.2-2.4,13.6L824,104l-16,16l-16-16l-16,16l-16-16l-16,16l-16-16l-16,16V88
		h116c5.7,0,10.4,4,11.7,9.2C839.9,98.1,840,99,840,100z"/>
	<path class="st3" d="M704,224v32l-16-16l-16,16l-16-16l-16,16l-16-16l-16,16l-16-16l-16,16v-20c0-6.6,5.4-12,12-12H704z"/>
	<path class="st3" d="M840,236v20l-16-16l-16,16l-16-16l-16,16l-16-16l-16,16l-16-16l-16,16v-32h116C834.6,224,840,229.4,840,236z"
		/>
	<polygon class="st3" points="1096,88 984,88 984,120 1000,104 1016,120 1032,104 1048,120 1064,104 1080,120 1096,104 1112,120 
		1112,88 	"/>
	<path class="st3" d="M976,88v32l-16-16l-16,16l-16-16l-16,16l-16-16l-16,16l-16-16l-16,16v-20c0-6.6,5.4-12,12-12H976z"/>
	<path class="st3" d="M976,236v20l-16-16l-16,16l-16-16l-16,16l-16-16l-16,16l-16-16l-16,16v-32h116C970.6,224,976,229.4,976,236z"
		/>
	<path class="st3" d="M1112,236v20l-16-16l-16,16l-16-16l-16,16l-16-16l-16,16l-16-16l-16,16v-20c0-6.6,5.4-12,12-12h104
		C1106.6,224,1112,229.4,1112,236z"/>
	<polygon class="st4" points="416,648 304,648 304,680 320,664 336,680 352,664 368,680 384,664 400,680 416,664 432,680 432,648 	
		"/>
	<path class="st4" d="M296,648v32l-16-16l-16,16l-16-16l-16,16l-16-16l-16,16l-16-16l-16,16v-20c0-6.6,5.4-12,12-12H296z"/>
	<path class="st4" d="M568,660v20l-16-16l-16,16l-16-16l-16,16l-16-16l-16,16l-16-16l-16,16v-32h116C562.6,648,568,653.4,568,660z"
		/>
	<path class="st4" d="M296,796v20l-16-16l-16,16l-16-16l-16,16l-16-16l-16,16l-16-16l-16,16v-20c0-6.6,5.4-12,12-12h104
		C290.6,784,296,789.4,296,796z"/>
	<path class="st4" d="M704,648v32l-16-16l-16,16l-16-16l-16,16l-16-16l-16,16l-16-16l-12.8,12.8c-1-4.5-1.8-9-2.4-13.6L576,664v-4
		c0-1,0.1-1.9,0.3-2.8c1.3-5.3,6-9.2,11.7-9.2H704z"/>
	<path class="st4" d="M840,660v4l-0.9-0.9c-0.5,4.6-1.3,9.2-2.4,13.6L824,664l-16,16l-16-16l-16,16l-16-16l-16,16l-16-16l-16,16v-32
		h116c5.7,0,10.4,4,11.7,9.2C839.9,658.1,840,659,840,660z"/>
	<path class="st4" d="M704,784v32l-16-16l-16,16l-16-16l-16,16l-16-16l-16,16l-16-16l-16,16v-20c0-6.6,5.4-12,12-12H704z"/>
	<path class="st4" d="M840,796v20l-16-16l-16,16l-16-16l-16,16l-16-16l-16,16l-16-16l-16,16v-32h116C834.6,784,840,789.4,840,796z"
		/>
	<polygon class="st4" points="1096,648 984,648 984,680 1000,664 1016,680 1032,664 1048,680 1064,664 1080,680 1096,664 1112,680 
		1112,648 	"/>
	<path class="st4" d="M976,648v32l-16-16l-16,16l-16-16l-16,16l-16-16l-16,16l-16-16l-16,16v-20c0-6.6,5.4-12,12-12H976z"/>
	<path class="st4" d="M976,796v20l-16-16l-16,16l-16-16l-16,16l-16-16l-16,16l-16-16l-16,16v-32h116C970.6,784,976,789.4,976,796z"
		/>
	<path class="st4" d="M1112,796v20l-16-16l-16,16l-16-16l-16,16l-16-16l-16,16l-16-16l-16,16v-20c0-6.6,5.4-12,12-12h104
		C1106.6,784,1112,789.4,1112,796z"/>
	<polygon class="st5" points="416,928 304,928 304,960 320,944 336,960 352,944 368,960 384,944 400,960 416,944 432,960 432,928 	
		"/>
	<path class="st5" d="M296,928v32l-16-16l-16,16l-16-16l-16,16l-16-16l-16,16l-16-16l-16,16v-20c0-6.6,5.4-12,12-12H296z"/>
	<path class="st5" d="M568,940v20l-16-16l-16,16l-16-16l-16,16l-16-16l-16,16l-16-16l-16,16v-32h116C562.6,928,568,933.4,568,940z"
		/>
	<path class="st5" d="M296,1076v20l-16-16l-16,16l-16-16l-16,16l-16-16l-16,16l-16-16l-16,16v-20c0-6.6,5.4-12,12-12h104
		C290.6,1064,296,1069.4,296,1076z"/>
	<path class="st5" d="M704,928v32l-16-16l-16,16l-16-16l-16,16l-16-16l-16,16l-16-16l-12.8,12.8c-1-4.5-1.8-9-2.4-13.6L576,944v-4
		c0-1,0.1-1.9,0.3-2.8c1.3-5.3,6-9.2,11.7-9.2H704z"/>
	<path class="st5" d="M840,940v4l-0.9-0.9c-0.5,4.6-1.3,9.2-2.4,13.6L824,944l-16,16l-16-16l-16,16l-16-16l-16,16l-16-16l-16,16v-32
		h116c5.7,0,10.4,4,11.7,9.2C839.9,938.1,840,939,840,940z"/>
	<path class="st5" d="M704,1064v32l-16-16l-16,16l-16-16l-16,16l-16-16l-16,16l-16-16l-16,16v-20c0-6.6,5.4-12,12-12H704z"/>
	<path class="st5" d="M840,1076v20l-16-16l-16,16l-16-16l-16,16l-16-16l-16,16l-16-16l-16,16v-32h116
		C834.6,1064,840,1069.4,840,1076z"/>
	<polygon class="st5" points="1096,928 984,928 984,960 1000,944 1016,960 1032,944 1048,960 1064,944 1080,960 1096,944 1112,960 
		1112,928 	"/>
	<path class="st5" d="M976,928v32l-16-16l-16,16l-16-16l-16,16l-16-16l-16,16l-16-16l-16,16v-20c0-6.6,5.4-12,12-12H976z"/>
	<path class="st5" d="M976,1076v20l-16-16l-16,16l-16-16l-16,16l-16-16l-16,16l-16-16l-16,16v-32h116
		C970.6,1064,976,1069.4,976,1076z"/>
	<path class="st5" d="M1112,1076v20l-16-16l-16,16l-16-16l-16,16l-16-16l-16,16l-16-16l-16,16v-20c0-6.6,5.4-12,12-12h104
		C1106.6,1064,1112,1069.4,1112,1076z"/>
	<polygon class="st6" points="416,368 304,368 304,400 320,384 336,400 352,384 368,400 384,384 400,400 416,384 432,400 432,368 	
		"/>
	<path class="st6" d="M296,368v32l-16-16l-16,16l-16-16l-16,16l-16-16l-16,16l-16-16l-16,16v-20c0-6.6,5.4-12,12-12H296z"/>
	<path class="st6" d="M568,380v20l-16-16l-16,16l-16-16l-16,16l-16-16l-16,16l-16-16l-16,16v-32h116C562.6,368,568,373.4,568,380z"
		/>
	<path class="st6" d="M296,516v20l-16-16l-16,16l-16-16l-16,16l-16-16l-16,16l-16-16l-16,16v-20c0-6.6,5.4-12,12-12h104
		C290.6,504,296,509.4,296,516z"/>
	<path class="st6" d="M704,368v32l-16-16l-16,16l-16-16l-16,16l-16-16l-16,16l-16-16l-12.8,12.8c-1-4.5-1.8-9-2.4-13.6L576,384v-4
		c0-1,0.1-1.9,0.3-2.8c1.3-5.3,6-9.2,11.7-9.2H704z"/>
	<path class="st6" d="M840,380v4l-0.9-0.9c-0.5,4.6-1.3,9.2-2.4,13.6L824,384l-16,16l-16-16l-16,16l-16-16l-16,16l-16-16l-16,16v-32
		h116c5.7,0,10.4,4,11.7,9.2C839.9,378.1,840,379,840,380z"/>
	<path class="st6" d="M704,504v32l-16-16l-16,16l-16-16l-16,16l-16-16l-16,16l-16-16l-16,16v-20c0-6.6,5.4-12,12-12H704z"/>
	<path class="st6" d="M840,516v20l-16-16l-16,16l-16-16l-16,16l-16-16l-16,16l-16-16l-16,16v-32h116C834.6,504,840,509.4,840,516z"
		/>
	<polygon class="st6" points="1096,368 984,368 984,400 1000,384 1016,400 1032,384 1048,400 1064,384 1080,400 1096,384 1112,400 
		1112,368 	"/>
	<path class="st6" d="M976,368v32l-16-16l-16,16l-16-16l-16,16l-16-16l-16,16l-16-16l-16,16v-20c0-6.6,5.4-12,12-12H976z"/>
	<path class="st6" d="M976,516v20l-16-16l-16,16l-16-16l-16,16l-16-16l-16,16l-16-16l-16,16v-32h116C970.6,504,976,509.4,976,516z"
		/>
	<path class="st6" d="M1112,516v20l-16-16l-16,16l-16-16l-16,16l-16-16l-16,16l-16-16l-16,16v-20c0-6.6,5.4-12,12-12h104
		C1106.6,504,1112,509.4,1112,516z"/>
</g>
<g id="ground4">
	<polygon class="st7" points="304,120 320,104 336,120 352,104 368,120 384,104 400,120 416,104 432,120 432,128 416,112 400,128 
		384,112 368,128 352,112 336,128 320,112 304,128 	"/>
	<polygon class="st7" points="168,120 184,104 200,120 216,104 232,120 248,104 264,120 280,104 296,120 296,128 280,112 264,128 
		248,112 232,128 216,112 200,128 184,112 168,128 	"/>
	<polygon class="st7" points="440,120 456,104 472,120 488,104 504,120 520,104 536,120 552,104 568,120 568,128 552,112 536,128 
		520,112 504,128 488,112 472,128 456,112 440,128 	"/>
	<polygon class="st7" points="168,256 184,240 200,256 216,240 232,256 248,240 264,256 280,240 296,256 296,264 280,248 264,264 
		248,248 232,264 216,248 200,264 184,248 168,264 	"/>
	<path class="st7" d="M704,120v8l-16-16l-16,16l-16-16l-16,16l-16-16l-16,16l-16-16l-11.1,11.1c-0.6-2.1-1.1-4.2-1.6-6.4L592,104
		l16,16l16-16l16,16l16-16l16,16l16-16L704,120z"/>
	<path class="st7" d="M836.8,116.8c-0.5,2.1-1,4.3-1.6,6.4L824,112l-16,16l-16-16l-16,16l-16-16l-16,16l-16-16l-16,16v-8l16-16
		l16,16l16-16l16,16l16-16l16,16l16-16L836.8,116.8z"/>
	<path class="st7" d="M704,256v8l-16-16l-16,16l-16-16l-16,16l-16-16l-16,16l-16-16l-12.9,12.9c-1-0.3-2.1-0.6-3.1-0.9v-4l16-16
		l16,16l16-16l16,16l16-16l16,16l16-16L704,256z"/>
	<path class="st7" d="M840,256v4c-1,0.3-2.1,0.5-3.1,0.9L824,248l-16,16l-16-16l-16,16l-16-16l-16,16l-16-16l-16,16v-8l16-16l16,16
		l16-16l16,16l16-16l16,16l16-16L840,256z"/>
	<polygon class="st7" points="984,120 1000,104 1016,120 1032,104 1048,120 1064,104 1080,120 1096,104 1112,120 1112,128 1096,112 
		1080,128 1064,112 1048,128 1032,112 1016,128 1000,112 984,128 	"/>
	<polygon class="st7" points="848,120 864,104 880,120 896,104 912,120 928,104 944,120 960,104 976,120 976,128 960,112 944,128 
		928,112 912,128 896,112 880,128 864,112 848,128 	"/>
	<polygon class="st7" points="848,256 864,240 880,256 896,240 912,256 928,240 944,256 960,240 976,256 976,264 960,248 944,264 
		928,248 912,264 896,248 880,264 864,248 848,264 	"/>
	<polygon class="st7" points="984,256 1000,240 1016,256 1032,240 1048,256 1064,240 1080,256 1096,240 1112,256 1112,264 1096,248 
		1080,264 1064,248 1048,264 1032,248 1016,264 1000,248 984,264 	"/>
	<polygon class="st8" points="304,680 320,664 336,680 352,664 368,680 384,664 400,680 416,664 432,680 432,688 416,672 400,688 
		384,672 368,688 352,672 336,688 320,672 304,688 	"/>
	<polygon class="st8" points="168,680 184,664 200,680 216,664 232,680 248,664 264,680 280,664 296,680 296,688 280,672 264,688 
		248,672 232,688 216,672 200,688 184,672 168,688 	"/>
	<polygon class="st8" points="440,680 456,664 472,680 488,664 504,680 520,664 536,680 552,664 568,680 568,688 552,672 536,688 
		520,672 504,688 488,672 472,688 456,672 440,688 	"/>
	<polygon class="st8" points="168,816 184,800 200,816 216,800 232,816 248,800 264,816 280,800 296,816 296,824 280,808 264,824 
		248,808 232,824 216,808 200,824 184,808 168,824 	"/>
	<path class="st8" d="M704,680v8l-16-16l-16,16l-16-16l-16,16l-16-16l-16,16l-16-16l-11.1,11.1c-0.6-2.1-1.1-4.2-1.6-6.4L592,664
		l16,16l16-16l16,16l16-16l16,16l16-16L704,680z"/>
	<path class="st8" d="M836.8,676.8c-0.5,2.1-1,4.3-1.6,6.4L824,672l-16,16l-16-16l-16,16l-16-16l-16,16l-16-16l-16,16v-8l16-16
		l16,16l16-16l16,16l16-16l16,16l16-16L836.8,676.8z"/>
	<path class="st8" d="M704,816v8l-16-16l-16,16l-16-16l-16,16l-16-16l-16,16l-16-16l-12.9,12.9c-1-0.3-2.1-0.6-3.1-0.9v-4l16-16
		l16,16l16-16l16,16l16-16l16,16l16-16L704,816z"/>
	<path class="st8" d="M840,816v4c-1,0.3-2.1,0.5-3.1,0.9L824,808l-16,16l-16-16l-16,16l-16-16l-16,16l-16-16l-16,16v-8l16-16l16,16
		l16-16l16,16l16-16l16,16l16-16L840,816z"/>
	<polygon class="st8" points="984,680 1000,664 1016,680 1032,664 1048,680 1064,664 1080,680 1096,664 1112,680 1112,688 1096,672 
		1080,688 1064,672 1048,688 1032,672 1016,688 1000,672 984,688 	"/>
	<polygon class="st8" points="848,680 864,664 880,680 896,664 912,680 928,664 944,680 960,664 976,680 976,688 960,672 944,688 
		928,672 912,688 896,672 880,688 864,672 848,688 	"/>
	<polygon class="st8" points="848,816 864,800 880,816 896,800 912,816 928,800 944,816 960,800 976,816 976,824 960,808 944,824 
		928,808 912,824 896,808 880,824 864,808 848,824 	"/>
	<polygon class="st8" points="984,816 1000,800 1016,816 1032,800 1048,816 1064,800 1080,816 1096,800 1112,816 1112,824 1096,808 
		1080,824 1064,808 1048,824 1032,808 1016,824 1000,808 984,824 	"/>
	<polygon class="st9" points="304,960 320,944 336,960 352,944 368,960 384,944 400,960 416,944 432,960 432,968 416,952 400,968 
		384,952 368,968 352,952 336,968 320,952 304,968 	"/>
	<polygon class="st9" points="168,960 184,944 200,960 216,944 232,960 248,944 264,960 280,944 296,960 296,968 280,952 264,968 
		248,952 232,968 216,952 200,968 184,952 168,968 	"/>
	<polygon class="st9" points="440,960 456,944 472,960 488,944 504,960 520,944 536,960 552,944 568,960 568,968 552,952 536,968 
		520,952 504,968 488,952 472,968 456,952 440,968 	"/>
	<polygon class="st9" points="168,1096 184,1080 200,1096 216,1080 232,1096 248,1080 264,1096 280,1080 296,1096 296,1104 
		280,1088 264,1104 248,1088 232,1104 216,1088 200,1104 184,1088 168,1104 	"/>
	<path class="st9" d="M704,960v8l-16-16l-16,16l-16-16l-16,16l-16-16l-16,16l-16-16l-11.1,11.1c-0.6-2.1-1.1-4.2-1.6-6.4L592,944
		l16,16l16-16l16,16l16-16l16,16l16-16L704,960z"/>
	<path class="st9" d="M836.8,956.8c-0.5,2.1-1,4.3-1.6,6.4L824,952l-16,16l-16-16l-16,16l-16-16l-16,16l-16-16l-16,16v-8l16-16
		l16,16l16-16l16,16l16-16l16,16l16-16L836.8,956.8z"/>
	<path class="st9" d="M704,1096v8l-16-16l-16,16l-16-16l-16,16l-16-16l-16,16l-16-16l-12.9,12.9c-1-0.3-2.1-0.6-3.1-0.8v-4l16-16
		l16,16l16-16l16,16l16-16l16,16l16-16L704,1096z"/>
	<path class="st9" d="M840,1096v4c-1,0.3-2.1,0.5-3.1,0.8L824,1088l-16,16l-16-16l-16,16l-16-16l-16,16l-16-16l-16,16v-8l16-16
		l16,16l16-16l16,16l16-16l16,16l16-16L840,1096z"/>
	<polygon class="st9" points="984,960 1000,944 1016,960 1032,944 1048,960 1064,944 1080,960 1096,944 1112,960 1112,968 1096,952 
		1080,968 1064,952 1048,968 1032,952 1016,968 1000,952 984,968 	"/>
	<polygon class="st9" points="848,960 864,944 880,960 896,944 912,960 928,944 944,960 960,944 976,960 976,968 960,952 944,968 
		928,952 912,968 896,952 880,968 864,952 848,968 	"/>
	<polygon class="st9" points="848,1096 864,1080 880,1096 896,1080 912,1096 928,1080 944,1096 960,1080 976,1096 976,1104 
		960,1088 944,1104 928,1088 912,1104 896,1088 880,1104 864,1088 848,1104 	"/>
	<polygon class="st9" points="984,1096 1000,1080 1016,1096 1032,1080 1048,1096 1064,1080 1080,1096 1096,1080 1112,1096 
		1112,1104 1096,1088 1080,1104 1064,1088 1048,1104 1032,1088 1016,1104 1000,1088 984,1104 	"/>
	<polygon class="st10" points="304,400 320,384 336,400 352,384 368,400 384,384 400,400 416,384 432,400 432,408 416,392 400,408 
		384,392 368,408 352,392 336,408 320,392 304,408 	"/>
	<polygon class="st10" points="168,400 184,384 200,400 216,384 232,400 248,384 264,400 280,384 296,400 296,408 280,392 264,408 
		248,392 232,408 216,392 200,408 184,392 168,408 	"/>
	<polygon class="st10" points="440,400 456,384 472,400 488,384 504,400 520,384 536,400 552,384 568,400 568,408 552,392 536,408 
		520,392 504,408 488,392 472,408 456,392 440,408 	"/>
	<polygon class="st10" points="168,536 184,520 200,536 216,520 232,536 248,520 264,536 280,520 296,536 296,544 280,528 264,544 
		248,528 232,544 216,528 200,544 184,528 168,544 	"/>
	<path class="st10" d="M704,400v8l-16-16l-16,16l-16-16l-16,16l-16-16l-16,16l-16-16l-11.1,11.1c-0.6-2.1-1.1-4.2-1.6-6.4L592,384
		l16,16l16-16l16,16l16-16l16,16l16-16L704,400z"/>
	<path class="st10" d="M836.8,396.8c-0.5,2.1-1,4.3-1.6,6.4L824,392l-16,16l-16-16l-16,16l-16-16l-16,16l-16-16l-16,16v-8l16-16
		l16,16l16-16l16,16l16-16l16,16l16-16L836.8,396.8z"/>
	<path class="st10" d="M704,536v8l-16-16l-16,16l-16-16l-16,16l-16-16l-16,16l-16-16l-12.9,12.9c-1-0.3-2.1-0.6-3.1-0.9v-4l16-16
		l16,16l16-16l16,16l16-16l16,16l16-16L704,536z"/>
	<path class="st10" d="M840,536v4c-1,0.3-2.1,0.5-3.1,0.9L824,528l-16,16l-16-16l-16,16l-16-16l-16,16l-16-16l-16,16v-8l16-16l16,16
		l16-16l16,16l16-16l16,16l16-16L840,536z"/>
	<polygon class="st10" points="984,400 1000,384 1016,400 1032,384 1048,400 1064,384 1080,400 1096,384 1112,400 1112,408 
		1096,392 1080,408 1064,392 1048,408 1032,392 1016,408 1000,392 984,408 	"/>
	<polygon class="st10" points="848,400 864,384 880,400 896,384 912,400 928,384 944,400 960,384 976,400 976,408 960,392 944,408 
		928,392 912,408 896,392 880,408 864,392 848,408 	"/>
	<polygon class="st10" points="848,536 864,520 880,536 896,520 912,536 928,520 944,536 960,520 976,536 976,544 960,528 944,544 
		928,528 912,544 896,528 880,544 864,528 848,544 	"/>
	<polygon class="st10" points="984,536 1000,520 1016,536 1032,520 1048,536 1064,520 1080,536 1096,520 1112,536 1112,544 
		1096,528 1080,544 1064,528 1048,544 1032,528 1016,544 1000,528 984,544 	"/>
</g>
</svg>
