<?xml version="1.0" encoding="utf-8"?>
<!-- Generator: Adobe Illustrator 19.2.1, SVG Export Plug-In . SVG Version: 6.00 Build 0)  -->
<svg version="1.1" xmlns="http://www.w3.org/2000/svg" xmlns:xlink="http://www.w3.org/1999/xlink" x="0px" y="0px"
	 viewBox="0 0 1280 1280" style="enable-background:new 0 0 1280 1280;" xml:space="preserve">
<style type="text/css">
	.st0{fill:#3E94D1;}
	.st1{fill:#A86A3D;}
	.st2{fill:#2E934A;}
	.st3{fill:#24783C;}
	.st4{fill:#8F562E;}
	.st5{fill:#C87A29;}
	.st6{fill:#AC6A28;}
	.st7{fill:#7D5B9B;}
	.st8{fill:#6D4E8D;}
	.st9{fill:#BEDCE0;}
	.st10{fill:#E1F3F5;}
	.st11{fill:#8AD1F3;}
	.st12{fill:#76C8D4;}
	.st13{fill:#EAF6FB;}
	.st14{fill:#D25827;}
	.st15{fill:#E17526;}
	.st16{fill:#B64D26;}
	.st17{fill:#DBF1FD;}
	.st18{fill:#BEE5E5;}
	.st19{fill:#B9E4EE;}
	.st20{fill:#9987B2;}
	.st21{fill:#8965AC;}
	.st22{fill:#98D1AA;}
	.st23{fill:#80BF8C;}
	.st24{fill:#67A570;}
	.st25{fill:#E2D086;}
	.st26{fill:#D1BD65;}
	.st27{fill:#C2AC51;}
	.st28{fill:#36A551;}
	.st29{fill:#8A6BAB;}
	.st30{fill:#AEAEAE;}
	.st31{fill:#C7C6C6;}
	.st32{fill:#848484;}
	.st33{fill:#A87D47;}
	.st34{fill:#D79830;}
	.st35{fill:#EEC11B;}
	.st36{fill:#FEE760;}
	.st37{fill:#C2C1C1;}
	.st38{fill:#D8D9D8;}
	.st39{fill:#FFFFFF;}
</style>
<g id="bg">
	<rect x="0" y="0" class="st0" width="1280" height="1280"/>
</g>
<g id="tree2">
	<g>
		<polygon class="st1" points="204,896 180,896 188,840 196,840 		"/>
		<polygon class="st2" points="144,848 240,848 192,760 		"/>
		<polygon class="st2" points="152,816 232,816 192,744 		"/>
		<polygon class="st2" points="160,784 224,784 192,728 		"/>
		<polygon class="st3" points="169.8,784 214.2,784 216.4,788 167.6,788 		"/>
		<polygon class="st3" points="161.5,816 222.5,816 224.7,820 159.3,820 		"/>
		<polygon class="st4" points="186.9,848 197.1,848 197.7,852 186.3,852 		"/>
	</g>
	<polygon class="st1" points="460,896 436,896 444,840 452,840 	"/>
	<polygon class="st5" points="400,848 496,848 448,760 	"/>
	<polygon class="st5" points="408,816 488,816 448,744 	"/>
	<polygon class="st5" points="416,784 480,784 448,728 	"/>
	<polygon class="st6" points="425.8,784 470.2,784 472.4,788 423.6,788 	"/>
	<polygon class="st6" points="417.5,816 478.5,816 480.7,820 415.3,820 	"/>
	<polygon class="st4" points="442.9,848 453.1,848 453.7,852 442.3,852 	"/>
	<polygon class="st1" points="972,896 948,896 956,840 964,840 	"/>
	<polygon class="st7" points="912,848 1008,848 960,760 	"/>
	<polygon class="st7" points="920,816 1000,816 960,744 	"/>
	<polygon class="st7" points="928,784 992,784 960,728 	"/>
	<polygon class="st8" points="937.8,784 982.2,784 984.4,788 935.6,788 	"/>
	<polygon class="st8" points="929.5,816 990.5,816 992.7,820 927.3,820 	"/>
	<polygon class="st4" points="954.9,848 965.1,848 965.7,852 954.3,852 	"/>
	<polygon class="st1" points="716,896 692,896 700,840 708,840 	"/>
	<polygon class="st2" points="656,848 679.6,820 671.3,820 704,760 736.7,820 728.4,820 752,848 	"/>
	<polygon class="st2" points="664,816 688,788 679.6,788 704,744 728.4,788 720,788 744,816 	"/>
	<polygon class="st2" points="736,784 672,784 704,744 	"/>
	<polygon class="st9" points="681.8,784 726.2,784 728.4,788 679.6,788 	"/>
	<polygon class="st9" points="673.5,816 734.5,816 736.7,820 671.3,820 	"/>
	<polygon class="st4" points="698.9,848 709.1,848 709.7,852 698.3,852 	"/>
	<path class="st10" d="M725.2,896h-42.3c5.6-5,13-8,21.2-8S719.5,891,725.2,896z"/>
	<polygon class="st10" points="713.1,744 704.1,728 694.9,744 685.7,760 672,784 704,744 736,784 	"/>
	<polygon class="st10" points="664,816 679.6,788 688,788 	"/>
	<polygon class="st10" points="728.4,788 720,788 744,816 	"/>
	<polygon class="st10" points="728.4,820 736.7,820 752,848 	"/>
	<polygon class="st10" points="656,848 671.3,820 679.6,820 	"/>
</g>
<g id="water1">
	<rect x="272" y="128" class="st11" width="128" height="128"/>
	<path class="st12" d="M400,134v22.1c0,0-32.4,31.6-64,0c-31.6-31.6-64,0-64,0V134c0,0,3-2.9,8-6h49c2.4,1.7,4.7,3.7,7.1,6
		C367.6,165.7,400,134,400,134z"/>
	<path class="st12" d="M400,158.1v22.1c0,0-32.4,31.6-64,0c-31.6-31.6-64,0-64,0v-22.1c0,0,32.4-31.6,64,0S400,158.1,400,158.1z"/>
	<path class="st12" d="M400,227.9V250c0,0-3,2.9-8,6h-49c-2.4-1.7-4.7-3.7-7.1-6c-0.7-0.7-1.4-1.3-2-2c-31-28.3-62,2-62,2v-22.1
		c0,0,32.4-31.6,64,0C367.6,259.5,400,227.9,400,227.9z"/>
	<path class="st12" d="M400,203.9v22.1c0,0-32.4,31.6-64,0c-31.6-31.6-64,0-64,0v-22.1c0,0,32.4-31.6,64,0S400,203.9,400,203.9z"/>
	<path class="st12" d="M392,128c-10.3,6.5-29.3,14.2-49,0H392z"/>
	<path class="st12" d="M328.9,256h-49C290.3,249.5,309.3,241.8,328.9,256z"/>
	<path class="st11" d="M240,180.1V256H112v-75.9c0,0,32.4-31.6,64,0C207.6,211.7,240,180.1,240,180.1z"/>
	<path class="st12" d="M240,227.9V250c0,0-3,2.9-8,6h-49c-2.4-1.7-4.7-3.7-7.1-6c-0.7-0.7-1.4-1.3-2-2c-31-28.3-62,2-62,2v-22.1
		c0,0,32.4-31.6,64,0C207.6,259.5,240,227.9,240,227.9z"/>
	<path class="st12" d="M240,203.9v22.1c0,0-32.4,31.6-64,0c-31.6-31.6-64,0-64,0v-22.1c0,0,32.4-31.6,64,0S240,203.9,240,203.9z"/>
	<path class="st12" d="M168.9,256h-49C130.3,249.5,149.3,241.8,168.9,256z"/>
	<path class="st13" d="M240,174.1v6.1c0,0-32.4,31.6-64,0c-31.6-31.6-64,0-64,0v-6.1c0,0,32.4-31.6,64,0S240,174.1,240,174.1z"/>
	<rect x="656" y="128" class="st14" width="128" height="128"/>
	<path class="st15" d="M784,134v22.1c0,0-32.4,31.6-64,0c-31.6-31.6-64,0-64,0V134c0,0,3-2.9,8-6h49c2.4,1.7,4.7,3.7,7.1,6
		C751.6,165.7,784,134,784,134z"/>
	<path class="st15" d="M784,158.1v22.1c0,0-32.4,31.6-64,0c-31.6-31.6-64,0-64,0v-22.1c0,0,32.4-31.6,64,0S784,158.1,784,158.1z"/>
	<path class="st15" d="M784,227.9V250c0,0-3,2.9-8,6h-49c-2.4-1.7-4.7-3.7-7.1-6c-0.7-0.7-1.4-1.3-2-2c-31-28.3-62,2-62,2v-22.1
		c0,0,32.4-31.6,64,0C751.6,259.5,784,227.9,784,227.9z"/>
	<path class="st15" d="M784,203.9v22.1c0,0-32.4,31.6-64,0c-31.6-31.6-64,0-64,0v-22.1c0,0,32.4-31.6,64,0S784,203.9,784,203.9z"/>
	<path class="st15" d="M776,128c-10.3,6.5-29.3,14.2-49,0H776z"/>
	<path class="st15" d="M712.9,256h-49C674.3,249.5,693.3,241.8,712.9,256z"/>
	<path class="st14" d="M624,180.1V256H496v-75.9c0,0,32.4-31.6,64,0C591.6,211.7,624,180.1,624,180.1z"/>
	<path class="st15" d="M624,227.9V250c0,0-3,2.9-8,6h-49c-2.4-1.7-4.7-3.7-7.1-6c-0.7-0.7-1.4-1.3-2-2c-31-28.3-62,2-62,2v-22.1
		c0,0,32.4-31.6,64,0C591.6,259.5,624,227.9,624,227.9z"/>
	<path class="st15" d="M624,203.9v22.1c0,0-32.4,31.6-64,0c-31.6-31.6-64,0-64,0v-22.1c0,0,32.4-31.6,64,0S624,203.9,624,203.9z"/>
	<path class="st15" d="M552.9,256h-49C514.3,249.5,533.3,241.8,552.9,256z"/>
	<path class="st16" d="M624,174.1v6.1c0,0-32.4,31.6-64,0c-31.6-31.6-64,0-64,0v-6.1c0,0,32.4-31.6,64,0S624,174.1,624,174.1z"/>
	<rect x="1040" y="128" class="st17" width="128" height="128"/>
	<path class="st18" d="M1168,134v22.1c0,0-32.4,31.6-64,0c-31.6-31.6-64,0-64,0V134c0,0,3-2.9,8-6h49c2.4,1.7,4.7,3.7,7.1,6
		C1135.6,165.7,1168,134,1168,134z"/>
	<path class="st18" d="M1168,158.1v22.1c0,0-32.4,31.6-64,0c-31.6-31.6-64,0-64,0v-22.1c0,0,32.4-31.6,64,0S1168,158.1,1168,158.1z"
		/>
	<path class="st18" d="M1168,227.9V250c0,0-3,2.9-8,6h-49c-2.4-1.7-4.7-3.7-7.1-6c-0.7-0.7-1.4-1.3-2.1-2c-30.9-28.3-61.9,2-61.9,2
		v-22.1c0,0,32.4-31.6,64,0C1135.6,259.5,1168,227.9,1168,227.9z"/>
	<path class="st18" d="M1168,203.9v22.1c0,0-32.4,31.6-64,0c-31.6-31.6-64,0-64,0v-22.1c0,0,32.4-31.6,64,0S1168,203.9,1168,203.9z"
		/>
	<path class="st18" d="M1160,128c-10.3,6.5-29.3,14.2-49,0H1160z"/>
	<path class="st18" d="M1096.9,256h-49C1058.3,249.5,1077.3,241.8,1096.9,256z"/>
	<path class="st17" d="M1008,180.1V256H880v-75.9c0,0,32.4-31.6,64,0C975.6,211.7,1008,180.1,1008,180.1z"/>
	<path class="st18" d="M1008,227.9V250c0,0-3,2.9-8,6h-49c-2.4-1.7-4.7-3.7-7.1-6c-0.7-0.7-1.4-1.3-2-2c-31-28.3-62,2-62,2v-22.1
		c0,0,32.4-31.6,64,0C975.6,259.5,1008,227.9,1008,227.9z"/>
	<path class="st18" d="M1008,203.9v22.1c0,0-32.4,31.6-64,0c-31.6-31.6-64,0-64,0v-22.1c0,0,32.4-31.6,64,0S1008,203.9,1008,203.9z"
		/>
	<path class="st18" d="M936.9,256h-49C898.3,249.5,917.3,241.8,936.9,256z"/>
	<path class="st19" d="M1008,174.1v6.1c0,0-32.4,31.6-64,0c-31.6-31.6-64,0-64,0v-6.1c0,0,32.4-31.6,64,0S1008,174.1,1008,174.1z"/>
	<rect x="272" y="384" class="st20" width="128" height="128"/>
	<path class="st21" d="M400,390v22.1c0,0-32.4,31.6-64,0c-31.6-31.6-64,0-64,0V390c0,0,3-2.9,8-6h49c2.4,1.7,4.7,3.7,7.1,6
		C367.6,421.7,400,390,400,390z"/>
	<path class="st21" d="M400,414.1v22.1c0,0-32.4,31.6-64,0c-31.6-31.6-64,0-64,0v-22.1c0,0,32.4-31.6,64,0S400,414.1,400,414.1z"/>
	<path class="st21" d="M400,483.9V506c0,0-3,2.9-8,6h-49c-2.4-1.7-4.7-3.7-7.1-6c-0.7-0.7-1.4-1.3-2-2c-31-28.3-62,2-62,2v-22.1
		c0,0,32.4-31.6,64,0C367.6,515.5,400,483.9,400,483.9z"/>
	<path class="st21" d="M400,459.9v22.1c0,0-32.4,31.6-64,0c-31.6-31.6-64,0-64,0v-22.1c0,0,32.4-31.6,64,0S400,459.9,400,459.9z"/>
	<path class="st21" d="M392,384c-10.3,6.5-29.3,14.2-49,0H392z"/>
	<path class="st21" d="M328.9,512h-49C290.3,505.5,309.3,497.8,328.9,512z"/>
	<path class="st20" d="M240,436.1V512H112v-75.9c0,0,32.4-31.6,64,0C207.6,467.7,240,436.1,240,436.1z"/>
	<path class="st21" d="M240,483.9V506c0,0-3,2.9-8,6h-49c-2.4-1.7-4.7-3.7-7.1-6c-0.7-0.7-1.4-1.3-2-2c-31-28.3-62,2-62,2v-22.1
		c0,0,32.4-31.6,64,0C207.6,515.5,240,483.9,240,483.9z"/>
	<path class="st21" d="M240,459.9v22.1c0,0-32.4,31.6-64,0c-31.6-31.6-64,0-64,0v-22.1c0,0,32.4-31.6,64,0S240,459.9,240,459.9z"/>
	<path class="st21" d="M168.9,512h-49C130.3,505.5,149.3,497.8,168.9,512z"/>
	<path class="st7" d="M240,430.1v6.1c0,0-32.4,31.6-64,0c-31.6-31.6-64,0-64,0v-6.1c0,0,32.4-31.6,64,0S240,430.1,240,430.1z"/>
	<rect x="656" y="384" class="st22" width="128" height="128"/>
	<path class="st23" d="M784,390v22.1c0,0-32.4,31.6-64,0c-31.6-31.6-64,0-64,0V390c0,0,3-2.9,8-6h49c2.4,1.7,4.7,3.7,7.1,6
		C751.6,421.7,784,390,784,390z"/>
	<path class="st23" d="M784,414.1v22.1c0,0-32.4,31.6-64,0c-31.6-31.6-64,0-64,0v-22.1c0,0,32.4-31.6,64,0S784,414.1,784,414.1z"/>
	<path class="st23" d="M784,483.9V506c0,0-3,2.9-8,6h-49c-2.4-1.7-4.7-3.7-7.1-6c-0.7-0.7-1.4-1.3-2-2c-31-28.3-62,2-62,2v-22.1
		c0,0,32.4-31.6,64,0C751.6,515.5,784,483.9,784,483.9z"/>
	<path class="st23" d="M784,459.9v22.1c0,0-32.4,31.6-64,0c-31.6-31.6-64,0-64,0v-22.1c0,0,32.4-31.6,64,0S784,459.9,784,459.9z"/>
	<path class="st23" d="M776,384c-10.3,6.5-29.3,14.2-49,0H776z"/>
	<path class="st23" d="M712.9,512h-49C674.3,505.5,693.3,497.8,712.9,512z"/>
	<path class="st22" d="M624,436.1V512H496v-75.9c0,0,32.4-31.6,64,0C591.6,467.7,624,436.1,624,436.1z"/>
	<path class="st23" d="M624,483.9V506c0,0-3,2.9-8,6h-49c-2.4-1.7-4.7-3.7-7.1-6c-0.7-0.7-1.4-1.3-2-2c-31-28.3-62,2-62,2v-22.1
		c0,0,32.4-31.6,64,0C591.6,515.5,624,483.9,624,483.9z"/>
	<path class="st23" d="M624,459.9v22.1c0,0-32.4,31.6-64,0c-31.6-31.6-64,0-64,0v-22.1c0,0,32.4-31.6,64,0S624,459.9,624,459.9z"/>
	<path class="st23" d="M552.9,512h-49C514.3,505.5,533.3,497.8,552.9,512z"/>
	<path class="st24" d="M624,430.1v6.1c0,0-32.4,31.6-64,0c-31.6-31.6-64,0-64,0v-6.1c0,0,32.4-31.6,64,0S624,430.1,624,430.1z"/>
	<rect x="1040" y="384" class="st25" width="128" height="128"/>
	<path class="st26" d="M1168,390v22.1c0,0-32.4,31.6-64,0c-31.6-31.6-64,0-64,0V390c0,0,3-2.9,8-6h49c2.4,1.7,4.7,3.7,7.1,6
		C1135.6,421.7,1168,390,1168,390z"/>
	<path class="st26" d="M1168,414.1v22.1c0,0-32.4,31.6-64,0c-31.6-31.6-64,0-64,0v-22.1c0,0,32.4-31.6,64,0S1168,414.1,1168,414.1z"
		/>
	<path class="st26" d="M1168,483.9V506c0,0-3,2.9-8,6h-49c-2.4-1.7-4.7-3.7-7.1-6c-0.7-0.7-1.4-1.3-2.1-2c-30.9-28.3-61.9,2-61.9,2
		v-22.1c0,0,32.4-31.6,64,0C1135.6,515.5,1168,483.9,1168,483.9z"/>
	<path class="st26" d="M1168,459.9v22.1c0,0-32.4,31.6-64,0c-31.6-31.6-64,0-64,0v-22.1c0,0,32.4-31.6,64,0S1168,459.9,1168,459.9z"
		/>
	<path class="st26" d="M1160,384c-10.3,6.5-29.3,14.2-49,0H1160z"/>
	<path class="st26" d="M1096.9,512h-49C1058.3,505.5,1077.3,497.8,1096.9,512z"/>
	<path class="st25" d="M1008,436.1V512H880v-75.9c0,0,32.4-31.6,64,0C975.6,467.7,1008,436.1,1008,436.1z"/>
	<path class="st26" d="M1008,483.9V506c0,0-3,2.9-8,6h-49c-2.4-1.7-4.7-3.7-7.1-6c-0.7-0.7-1.4-1.3-2-2c-31-28.3-62,2-62,2v-22.1
		c0,0,32.4-31.6,64,0C975.6,515.5,1008,483.9,1008,483.9z"/>
	<path class="st26" d="M1008,459.9v22.1c0,0-32.4,31.6-64,0c-31.6-31.6-64,0-64,0v-22.1c0,0,32.4-31.6,64,0S1008,459.9,1008,459.9z"
		/>
	<path class="st26" d="M936.9,512h-49C898.3,505.5,917.3,497.8,936.9,512z"/>
	<path class="st27" d="M1008,430.1v6.1c0,0-32.4,31.6-64,0c-31.6-31.6-64,0-64,0v-6.1c0,0,32.4-31.6,64,0S1008,430.1,1008,430.1z"/>
</g>
<g id="grass">
	<polygon class="st7" points="575.6,1015.2 561.5,988 560,1016 544,1008 552,1024 560,1024 584,1024 592,1000 	"/>
	<polygon class="st2" points="191.6,1015.2 177.5,988 176,1016 160,1008 168,1024 176,1024 200,1024 208,1000 	"/>
	<polygon class="st5" points="320,1015.2 305.9,988 304.4,1016 288.4,1008 296.4,1024 304.4,1024 328.4,1024 336.4,1000 	"/>
	<polygon class="st2" points="461.3,1008 456,1024 424,1024 420.5,1017 428.8,1014.4 432,1016 432.8,1001.2 442.8,1006 
		447.6,1015.3 452.5,1010.7 452.5,1010.7 	"/>
	<polygon class="st10" points="432.8,1001.2 433.5,988 442.8,1006 	"/>
	<polygon class="st10" points="452.5,1010.7 464,1000 461.3,1008 	"/>
	<polygon class="st10" points="420.5,1017 416,1008 428.9,1014.4 	"/>
</g>
<g id="bush">
	<path class="st6" d="M866,1024h-63.3c-0.5-1.3-0.7-2.6-0.7-4c0-5.3,3.5-9.9,8.3-11.4c1.6-9.4,9.8-16.6,19.7-16.6
		c9.7,0,17.8,6.9,19.6,16c0.1,0,0.3,0,0.4,0c4.4,0,8,3.6,8,8C862.4,1016,866,1019.6,866,1024z"/>
	<path class="st5" d="M863.9,1024h-63.6c-0.3-1-0.4-2-0.4-3c0-5.3,3.5-9.9,8.3-11.4c1.6-9.4,9.8-16.6,19.7-16.6
		c9.7,0,17.8,6.9,19.6,16c0.1,0,0.3,0,0.4,0c4.4,0,8,3.6,8,8C860.1,1017,863.5,1020.1,863.9,1024z"/>
	<circle class="st6" cx="820.1" cy="1010.1" r="2.1"/>
	<circle class="st6" cx="815.5" cy="1013.6" r="1.6"/>
	<circle class="st6" cx="820.1" cy="1014.7" r="1.2"/>
	<path class="st28" d="M738,1024h-63.3c-0.5-1.3-0.7-2.6-0.7-4c0-5.3,3.5-9.9,8.3-11.4c1.6-9.4,9.8-16.6,19.7-16.6
		c9.7,0,17.8,6.9,19.6,16c0.1,0,0.3,0,0.4,0c4.4,0,8,3.6,8,8C734.4,1016,738,1019.6,738,1024z"/>
	<path class="st2" d="M735.9,1024h-63.6c-0.3-1-0.4-2-0.4-3c0-5.3,3.5-9.9,8.3-11.4c1.6-9.4,9.8-16.6,19.7-16.6
		c9.7,0,17.8,6.9,19.6,16c0.1,0,0.3,0,0.4,0c4.4,0,8,3.6,8,8C732.1,1017,735.5,1020.1,735.9,1024z"/>
	<circle class="st28" cx="692.1" cy="1010.1" r="2.1"/>
	<circle class="st28" cx="687.5" cy="1013.6" r="1.6"/>
	<circle class="st28" cx="692.1" cy="1014.7" r="1.2"/>
	<path class="st10" d="M994,1024h-63.3c-0.5-1.3-0.7-2.6-0.7-4c0-4.3,2.3-8.1,5.7-10.2c0.2-0.1,0.4-0.2,0.7-0.2l0-0.2
		c0.6-0.3,1.3-0.6,2-0.8c1-6,4.7-11.1,9.8-14c0,0,0,0,0,0c2.9-1.7,6.3-2.6,9.8-2.6c9.7,0,17.8,6.9,19.6,16c0.1,0,0.3,0,0.4,0
		c4.4,0,8,3.6,8,8C990.4,1016,994,1019.6,994,1024z"/>
	<path class="st2" d="M991.9,1024h-63.6c-0.3-1-0.4-2-0.4-3c0-5.1,3.2-9.4,7.7-11.2c0.2-0.1,0.4-0.2,0.7-0.2l0-0.2
		c1.2-6.7,5.7-12.2,11.8-14.8c0,0,0,0,0,0c2.4-1,5-1.6,7.8-1.6c9.7,0,17.8,6.9,19.6,16c0.1,0,0.3,0,0.4,0c4.4,0,8,3.6,8,8
		C988.1,1017,991.5,1020.1,991.9,1024z"/>
	<circle class="st10" cx="948.1" cy="1010.1" r="2.1"/>
	<circle class="st10" cx="943.5" cy="1013.6" r="1.6"/>
	<circle class="st10" cx="948.1" cy="1014.7" r="1.2"/>
	<path class="st29" d="M1122,1024h-63.3c-0.5-1.3-0.7-2.6-0.7-4c0-5.3,3.5-9.9,8.3-11.4c1.6-9.4,9.8-16.6,19.7-16.6
		c9.7,0,17.8,6.9,19.6,16c0.1,0,0.3,0,0.4,0c4.4,0,8,3.6,8,8C1118.4,1016,1122,1019.6,1122,1024z"/>
	<path class="st7" d="M1119.9,1024h-63.6c-0.3-1-0.4-2-0.4-3c0-5.3,3.5-9.9,8.3-11.4c1.6-9.4,9.8-16.6,19.7-16.6
		c9.7,0,17.8,6.9,19.6,16c0.1,0,0.3,0,0.4,0c4.4,0,8,3.6,8,8C1116.1,1017,1119.4,1020.1,1119.9,1024z"/>
	<circle class="st29" cx="1076.1" cy="1010.1" r="2.1"/>
	<circle class="st29" cx="1071.5" cy="1013.6" r="1.6"/>
	<circle class="st29" cx="1076.1" cy="1014.7" r="1.2"/>
</g>
<g id="rock">
	<polygon class="st30" points="200,1152 224,1144 224,1136 224,1128 200,1112 184,1112 168,1104 144,1128 160,1152 	"/>
	<polygon class="st31" points="144,1128 169.7,1115 180.8,1121.5 200,1112 184,1112 168,1104 	"/>
	<polygon class="st31" points="219.7,1125.1 200,1136 211.5,1138 224,1131.6 224,1128 	"/>
	<polygon class="st32" points="163.3,1130.2 160.8,1133.7 164.2,1136.8 170.8,1132.7 	"/>
	<polygon class="st32" points="174.5,1133.5 172,1136.8 176,1136.8 	"/>
	<polygon class="st32" points="173,1128.8 172,1130.2 174.8,1130.2 	"/>
	<polygon class="st30" points="328,1152 352,1144 352,1136 352,1128 328,1112 312,1112 296,1104 272,1128 288,1152 	"/>
	<polygon class="st10" points="272,1128 297.7,1115 308.8,1121.5 328,1112 312,1112 296,1104 	"/>
	<polygon class="st10" points="347.7,1125.1 328,1136 339.5,1138 352,1131.6 352,1128 	"/>
	<polygon class="st32" points="291.3,1130.2 288.8,1133.7 292.2,1136.8 298.8,1132.7 	"/>
	<polygon class="st32" points="302.5,1133.5 300,1136.8 304,1136.8 	"/>
	<polygon class="st32" points="301,1128.8 300,1130.2 302.8,1130.2 	"/>
</g>
<g id="coins">
	<circle class="st33" cx="448" cy="1088" r="16"/>
	<circle class="st34" cx="448" cy="1088" r="13.3"/>
	<path class="st33" d="M448.4,1082.2h-0.8c-0.6,0-1.1,0.5-1.1,1.1v9.4c0,0.6,0.5,1.1,1.1,1.1h0.8c0.6,0,1.1-0.5,1.1-1.1v-9.4
		C449.5,1082.7,449,1082.2,448.4,1082.2z"/>
	<circle class="st35" cx="704" cy="1088" r="16"/>
	<circle class="st36" cx="704" cy="1088" r="13.3"/>
	<path class="st35" d="M704.4,1082.2h-0.8c-0.6,0-1.1,0.5-1.1,1.1v9.4c0,0.6,0.5,1.1,1.1,1.1h0.8c0.6,0,1.1-0.5,1.1-1.1v-9.4
		C705.5,1082.7,705,1082.2,704.4,1082.2z"/>
	<circle class="st37" cx="576" cy="1088" r="16"/>
	<circle class="st38" cx="576" cy="1088" r="13.3"/>
	<path class="st37" d="M576.4,1082.2h-0.8c-0.6,0-1.1,0.5-1.1,1.1v9.4c0,0.6,0.5,1.1,1.1,1.1h0.8c0.6,0,1.1-0.5,1.1-1.1v-9.4
		C577.5,1082.7,577,1082.2,576.4,1082.2z"/>
</g>
<g id="cloud">
	<path class="st39" d="M960,1126.7c0-14-11.3-25.3-25.2-25.3c-1.8,0-3.5,0.2-5.2,0.5c-2.6-15.3-15.9-26.9-31.8-26.9
		c-4.8,0-9.4,1.1-13.5,3c-7.1-13.1-20.9-21.9-36.7-21.9c-19,0-35,12.7-40.1,30.1c-0.1,0-0.2,0-0.3,0c-10.4,0-19.3,5.9-23.8,14.5
		c-9.1,4.4-15.3,13.6-15.3,24.4c0,14.9,12.1,27,27,27c0.7,0,1.4,0,2.1-0.1c0.5,0.1,1,0.1,1.5,0.1h138.7c2,0,3.9-0.5,5.6-1.4
		C952.9,1147.2,960,1137.8,960,1126.7z"/>
</g>
</svg>
